<svg width="100" height="100" viewBox="0 0 100 100" fill="none" xmlns="http://www.w3.org/2000/svg">
<path fill-rule="evenodd" clip-rule="evenodd" d="M78.777 21.2412L66.8631 9.69504L50.2746 9.42438L33.6858 9.68435L21.7646 21.2228L10.2184 33.1366L9.94775 49.7252L10.2077 66.3139L21.7462 78.2351L33.66 89.7813L50.2485 90.052L56.904 89.9477C51.7213 85.5779 48.4291 79.0372 48.4291 71.7275C48.4291 58.5711 59.0945 47.9057 72.2509 47.9057C79.5585 47.9057 86.0974 51.1961 90.4672 56.376L90.5753 49.7512L90.3153 33.1624L78.777 21.2412Z" fill="black"/>
<path fill-rule="evenodd" clip-rule="evenodd" d="M50.2757 6.25919L68.1666 6.5511L81.016 19.0039L93.4604 31.861L93.7407 49.7523L93.6538 55.0777C94.371 55.7599 95.0507 56.4812 95.6892 57.2382L95.8114 49.7529L95.5176 31.0096L82.4806 17.5401L69.0194 4.49429L50.2763 4.18848L31.533 4.48221L18.0635 17.5193L5.01773 30.9804L4.71191 49.7235L5.00564 68.4668L18.0427 81.9363L31.5038 94.9821L50.2469 95.2879L57.7668 95.1701C57.009 94.5312 56.2868 93.851 55.604 93.1332L50.2476 93.2173L32.3567 92.9253L19.5074 80.4725L7.063 67.6154L6.78263 49.7241L7.07454 31.8332L19.5272 18.984L32.3844 6.53957L50.2757 6.25919Z" fill="#66DDDD"/>
<path fill-rule="evenodd" clip-rule="evenodd" d="M24.9653 39.3345C19.8335 53.0007 26.9117 68.4415 40.7136 73.4106C42.4104 74.546 42.1954 80.0103 40.0057 78.9127C30.0967 75.718 22.4877 68.0862 19.3026 58.1475C13.9941 41.287 23.1957 23.3613 40.0057 18.0369C41.4698 16.5718 43.0573 22.3643 40.7136 23.5389C33.4589 26.201 27.6195 31.8802 24.9653 39.3345ZM58.7625 23.7165C57.2151 22.681 56.9192 16.7582 59.4705 18.0369C69.2025 21.2315 76.9884 28.8634 80.1736 38.9796C81.1743 42.1582 81.6594 45.3746 81.6751 48.5374C79.9014 48.1123 78.0606 47.8612 76.1714 47.8027C75.8524 37.31 69.2478 27.4916 58.7625 23.7165ZM61.0638 51.819C59.9721 47.8425 56.3748 46.2761 50.2718 45.5475C44.9629 44.8374 43.9012 43.4175 43.9012 40.9324C43.9012 38.4471 45.6709 36.8502 49.2101 36.8502C52.3953 36.8502 54.1652 37.9151 55.0497 40.5775C55.6182 42.2867 60.3586 42.0055 60.3586 40.2227C60.3586 36.2472 55.9634 33.0789 52.3953 32.7678V28.5082C52.3953 26.3808 47.3558 26.2704 46.9094 28.5082V32.5903C41.6005 33.3004 38.2385 36.8502 38.2385 41.2876C38.2385 47.145 41.7777 49.4519 49.2101 50.3397C54.1652 51.2271 55.7579 52.2921 55.7579 55.132C55.7579 55.5106 55.7138 55.8732 55.6295 56.2175C57.242 54.5298 59.0679 53.0493 61.0638 51.819ZM53.1565 59.2019C52.2447 59.6666 51.1398 59.9244 49.918 59.9244C45.3167 59.9244 43.724 57.9717 43.1932 55.3093C42.7136 53.3826 37.7075 53.6262 37.7075 55.487V55.6646C38.4151 60.1015 41.2467 63.2965 47.0866 64.1843V68.444C47.0866 69.257 47.713 69.7445 48.5434 69.949C49.2992 65.9985 50.9026 62.3502 53.1565 59.2019Z" fill="white"/>
<path d="M72.5 91C82.7173 91 91 82.7173 91 72.5C91 62.2827 82.7173 54 72.5 54C62.2827 54 54 62.2827 54 72.5C54 82.7173 62.2827 91 72.5 91Z" fill="#7052CC"/>
<path d="M79.1724 68.2932C78.7064 68.0167 78.1627 68.0167 77.6579 68.2932L74.0854 70.4262L71.6779 71.8087L68.183 73.9418C67.717 74.2183 67.1734 74.2183 66.6686 73.9418L63.9115 72.2432C63.4455 71.9667 63.1349 71.4532 63.1349 70.8607V67.6217C63.1349 67.1082 63.4067 66.5947 63.9115 66.2392L66.6686 64.6196C67.1346 64.3431 67.6782 64.3431 68.183 64.6196L70.9401 66.3181C71.406 66.5946 71.7167 67.1081 71.7167 67.7007V69.8337L74.1243 68.4117V66.1996C74.1243 65.6861 73.8524 65.1726 73.3476 64.8171L68.2607 61.7756C67.7947 61.4991 67.251 61.4991 66.7462 61.7756L61.5039 64.8961C60.9991 65.1726 60.7273 65.6861 60.7273 66.1996V72.2827C60.7273 72.7963 60.9991 73.3098 61.5039 73.6653L66.6686 76.7068C67.1346 76.9833 67.6782 76.9833 68.183 76.7068L71.6779 74.6133L74.0854 73.1913L77.5803 71.0977C78.0463 70.8212 78.5899 70.8212 79.0947 71.0977L81.8518 72.7172C82.3178 72.9938 82.6284 73.5073 82.6284 74.0998V77.3388C82.6284 77.8523 82.3566 78.3658 81.8518 78.7214L79.1724 80.3409C78.7064 80.6174 78.1627 80.6174 77.6579 80.3409L74.9009 78.7214C74.4349 78.4448 74.1243 77.9313 74.1243 77.3388V75.2453L71.7167 76.6673V78.8004C71.7167 79.3139 71.9885 79.8274 72.4933 80.1829L77.6579 83.2244C78.1239 83.5009 78.6676 83.5009 79.1724 83.2244L84.337 80.1829C84.803 79.9064 85.1137 79.3929 85.1137 78.8004V72.6382C85.1137 72.1247 84.8418 71.6112 84.337 71.2557L79.1724 68.2932Z" fill="white"/>
</svg>
