<svg width="24" height="24" viewBox="0 0 24 24" fill="none" xmlns="http://www.w3.org/2000/svg">
<g clip-path="url(#clip0_1703_29869)">
<path d="M12 24C18.6274 24 24 18.6274 24 12C24 5.37258 18.6274 0 12 0C5.37258 0 0 5.37258 0 12C0 18.6274 5.37258 24 12 24Z" fill="#50AF95"/>
<path fill-rule="evenodd" clip-rule="evenodd" d="M18.5724 16.8585C17.0836 18.8692 14.6941 20.1726 12.0002 20.1726C7.48665 20.1726 3.8277 16.5137 3.8277 12.0001C3.8277 11.7577 3.83826 11.5176 3.85895 11.2805H2.35407C2.33659 11.5181 2.3277 11.7581 2.3277 12.0001C2.3277 17.3421 6.65823 21.6726 12.0002 21.6726C15.5712 21.6726 18.6902 19.7374 20.3658 16.8585H18.5724ZM20.1452 12.675C20.1633 12.4524 20.1726 12.2274 20.1726 12.0001C20.1726 7.48664 16.5137 3.82768 12.0002 3.82768C9.14284 3.82768 6.628 5.29406 5.16714 7.51528H3.42807C5.04479 4.43151 8.27678 2.32768 12.0002 2.32768C17.3421 2.32768 21.6726 6.65817 21.6726 12.0001C21.6726 12.227 21.6648 12.452 21.6495 12.675H20.1452Z" fill="#0E5A46"/>
<path d="M9.52233 8.01863L12.027 14.8199L14.5057 8.01863H16.3972L12.888 16.8627H11.153L7.63074 8.01863H9.52233Z" fill="#0E5A46"/>
<path fill-rule="evenodd" clip-rule="evenodd" d="M6.21363 11.2805H2.77393V12.675H6.21363V11.2805ZM18.0596 12.675H21.2512V11.2805H18.0596V12.675Z" fill="#0E5A46"/>
</g>
<defs>
<clipPath id="clip0_1703_29869">
<rect width="24" height="24" fill="white"/>
</clipPath>
</defs>
</svg>
