<svg width="24" height="24" fill="none" xmlns="http://www.w3.org/2000/svg"><g clip-path="url(#a)"><mask id="b" style="mask-type:alpha" maskUnits="userSpaceOnUse" x="0" y="0" width="24" height="24"><path d="M12 24c6.65 0 12-5.35 12-12S18.65 0 12 0 0 5.35 0 12s5.35 12 12 12z" fill="#2775CA"/></mask><g mask="url(#b)"><path d="M12 24c6.65 0 12-5.35 12-12S18.65 0 12 0 0 5.35 0 12s5.35 12 12 12z" fill="#2775CA"/><path fill-rule="evenodd" clip-rule="evenodd" d="M5.001 9.55c-1.45 3.85.55 8.2 4.45 9.6.15.1.3.3.3.45v.7c0 .1 0 .15-.05.2-.05.2-.25.3-.45.2-2.8-.9-4.95-3.05-5.85-5.85-1.5-4.75 1.1-9.8 5.85-11.3.05-.05.15-.05.2-.05.2.05.3.2.3.4v.7c0 .25-.1.4-.3.5-2.05.75-3.7 2.35-4.45 4.45zm9.3-5.8c.05-.2.25-.3.45-.2 2.75.9 4.95 3.05 5.85 5.9 1.5 4.75-1.1 9.8-5.85 11.3-.05.05-.15.05-.2.05-.2-.05-.3-.2-.3-.4v-.7c0-.25.1-.4.3-.5 2.05-.75 3.7-2.35 4.45-4.45 1.45-3.85-.55-8.2-4.45-9.6-.15-.1-.3-.3-.3-.5v-.7c0-.1 0-.15.05-.2zm-2.15 7.55c2.1.25 3.15.85 3.15 2.6 0 1.35-1 2.4-2.5 2.65v1.2c-.05.25-.2.4-.4.4h-.75c-.25-.05-.4-.2-.4-.4v-1.2c-1.65-.25-2.45-1.15-2.65-2.4v-.05c0-.2.15-.35.35-.35h.85c.15 0 .3.1.35.3.15.75.6 1.3 1.9 1.3.95 0 1.65-.55 1.65-1.35s-.45-1.1-1.85-1.35c-2.1-.25-3.1-.9-3.1-2.55 0-1.25.95-2.25 2.45-2.45V6.5c.05-.25.2-.4.4-.4h.75c.25.05.4.2.4.4v1.2c1.15.1 2.05.95 2.25 2.05v.05c0 .2-.15.35-.35.35h-.8c-.15 0-.3-.1-.35-.25-.25-.75-.75-1.05-1.65-1.05-1 0-1.5.45-1.5 1.15s.3 1.1 1.8 1.3z" fill="#fff"/><path opacity=".7" fill="#000" d="M-2.8 14h29v7h-29z"/><path d="M7.787 17.09h.21v-1.05h-.21v-.21h-1.26v1.47h1.26v-.21zm.84-1.26v1.47h-.21v.21h-.21v.21h-.21v.21h-1.47v1.89h-.63V15.2h2.1v.21h.21v.21h.21v.21h.21zM11.779 19.19v.63h-2.73V15.2h2.73v.63h-2.1v1.26h1.68v.63h-1.68v1.47h2.1zM14.09 17.09h.21v-1.05h-.21v-.21h-1.26v1.47h1.26v-.21zm.84-1.26v1.47h-.21v.21h-.21v.21h-.21v.21h-1.47v1.89h-.63V15.2h2.1v.21h.21v.21h.21v.21h.21zM18.081 19.19v.63h-2.73V15.2h2.73v.63h-2.1v1.26h1.68v.63h-1.68v1.47h2.1z" fill="#fff"/></g></g><defs><clipPath id="a"><path fill="#fff" d="M0 0h24v24H0z"/></clipPath></defs></svg>