<svg width="100" height="100" viewBox="0 0 100 100" fill="none" xmlns="http://www.w3.org/2000/svg">
<path fill-rule="evenodd" clip-rule="evenodd" d="M50.2757 6.25919L68.1666 6.5511L81.016 19.0039L93.4604 31.861L93.7407 49.7523L93.6538 55.0777C94.371 55.7599 95.0507 56.4812 95.6892 57.2382L95.8114 49.7529L95.5176 31.0096L82.4806 17.5401L69.0194 4.49429L50.2763 4.18848L31.533 4.48221L18.0635 17.5193L5.01773 30.9804L4.71191 49.7235L5.00564 68.4668L18.0427 81.9363L31.5038 94.9821L50.2469 95.2879L57.7668 95.1701C57.009 94.5312 56.2868 93.851 55.604 93.1332L50.2476 93.2173L32.3567 92.9253L19.5074 80.4725L7.063 67.6154L6.78263 49.7241L7.07454 31.8332L19.5272 18.984L32.3844 6.53957L50.2757 6.25919Z" fill="#66DDDD"/>
<path fill-rule="evenodd" clip-rule="evenodd" d="M78.777 21.2412L66.8631 9.69504L50.2746 9.42438L33.6858 9.68435L21.7646 21.2228L10.2184 33.1366L9.94775 49.7252L10.2077 66.3139L21.7462 78.2351L33.66 89.7813L50.2485 90.052L56.904 89.9477C51.7213 85.5779 48.4291 79.0372 48.4291 71.7275C48.4291 58.5711 59.0945 47.9057 72.2509 47.9057C79.5585 47.9057 86.0974 51.1961 90.4672 56.376L90.5753 49.7512L90.3153 33.1624L78.777 21.2412Z" fill="black"/>
<path d="M72.5 91C82.7173 91 91 82.7173 91 72.5C91 62.2827 82.7173 54 72.5 54C62.2827 54 54 62.2827 54 72.5C54 82.7173 62.2827 91 72.5 91Z" fill="#F3BB30"/>
<path d="M65.7879 63.7504L72.5 59.8864L79.212 63.7504L76.7444 65.1779L72.5 62.7413L68.2556 65.1779L65.7879 63.7504ZM79.212 68.6236L76.7444 67.1961L72.5 69.6327L68.2556 67.1961L65.7879 68.6236V71.4786L70.0323 73.9153V78.7885L72.5 80.2158L74.9676 78.7885V73.9153L79.212 71.4786V68.6236ZM79.212 76.3517V73.4968L76.7444 74.9244V77.7794L79.212 76.3517ZM80.9641 77.3608L76.7197 79.7976V82.6525L83.4318 78.7885V71.0603L80.9641 72.4877V77.3608ZM78.4965 66.187L80.9641 67.6145V70.4695L83.4318 69.0421V66.187L80.9641 64.7595L78.4965 66.187ZM70.0323 80.831V83.686L72.5 85.1136L74.9676 83.686V80.831L72.5 82.2587L70.0323 80.831ZM65.7879 76.3517L68.2556 77.7794V74.9244L65.7879 73.4968V76.3517ZM70.0323 66.187L72.5 67.6145L74.9676 66.187L72.5 64.7595L70.0323 66.187ZM64.0358 67.6145L66.5035 66.187L64.0358 64.7595L61.5681 66.187V69.0421L64.0358 70.4695V67.6145ZM64.0358 72.4877L61.5681 71.0603V78.7885L68.2802 82.6525V79.7976L64.0358 77.3608V72.4877Z" fill="white"/>
<mask id="mask0_5436_36949" style="mask-type:alpha" maskUnits="userSpaceOnUse" x="9" y="9" width="82" height="82">
<path fill-rule="evenodd" clip-rule="evenodd" d="M78.777 21.2412L66.8631 9.69504L50.2746 9.42438L33.6858 9.68435L21.7646 21.2228L10.2184 33.1366L9.94775 49.7252L10.2077 66.3139L21.7462 78.2351L33.66 89.7813L50.2485 90.052L56.904 89.9477C51.7213 85.5779 48.4291 79.0372 48.4291 71.7275C48.4291 58.5711 59.0945 47.9057 72.2509 47.9057C79.5585 47.9057 86.0974 51.1961 90.4672 56.376L90.5753 49.7512L90.3153 33.1624L78.777 21.2412Z" fill="black"/>
</mask>
<g mask="url(#mask0_5436_36949)">
<path d="M55.2861 52.9453V52.9378C54.9613 52.9603 53.2844 53.0576 49.5529 53.0576C46.5692 53.0576 44.4768 52.9753 43.7366 52.9378V52.9453C32.2625 52.444 23.7042 50.4688 23.7042 48.097C23.7042 45.7327 32.2701 43.7499 43.7366 43.2486V50.9776C44.4844 51.0299 46.6372 51.1571 49.6058 51.1571C53.1711 51.1571 54.9538 51.0075 55.2861 50.9776V43.2561C66.7375 43.7649 75.2731 45.7401 75.2731 48.1045C75.2731 50.4688 66.7299 52.444 55.2861 52.9528V52.9453ZM55.2861 42.4555V35.5422H71.2621V25H27.7681V35.5422H43.7441V42.4555C30.7593 43.0466 21 45.5905 21 48.6432C21 51.6958 30.7669 54.2397 43.7441 54.8383V77H55.2937V54.8383C68.2558 54.2472 78 51.7033 78 48.6506C78 45.6055 68.2558 43.0541 55.2937 42.463" fill="white"/>
</g>
</svg>
