<svg width="24" height="24" viewBox="0 0 24 24" fill="none" xmlns="http://www.w3.org/2000/svg">
<g clip-path="url(#clip0_7937_89975)">
<path d="M18.7865 19.3446L20.0889 20.864C22.4922 18.6696 23.9999 15.5109 23.9999 12C23.9999 11.2693 23.9346 10.5538 23.8095 9.85916L21.8637 10.3456C21.9533 10.8838 21.9999 11.4364 21.9999 12C21.9999 14.9034 20.7626 17.5178 18.7865 19.3446Z" fill="#F5BF4C"/>
<path d="M13.9999 2.20001C17.3726 2.8846 20.1289 5.26655 21.3383 8.41539L23.2912 7.92718C21.8421 3.91051 18.3107 0.889075 13.9999 0.165894V2.20001Z" fill="#55AF95"/>
<path d="M11.9999 0C7.80087 1.95933e-05 4.10555 2.15679 1.9613 5.42298L3.64902 6.49698C5.43803 3.78757 8.51023 2.00002 11.9999 2V0Z" fill="#2775CA"/>
<path d="M2.71702 8.2745L1.00504 7.18506C0.358692 8.6589 0 10.2876 0 12C0 15.2195 1.26789 18.1429 3.33161 20.2981L4.67398 18.8066C3.01475 17.0216 2 14.6293 2 12C2 10.6832 2.25451 9.42588 2.71702 8.2745Z" fill="#F0B90B"/>
<path d="M6.17461 20.129L4.8298 21.6232C6.83025 23.1161 9.31191 24 12 24C14.3967 24 16.6293 23.2974 18.503 22.0869L17.1868 20.5514C15.6745 21.4706 13.8991 22 12 22C9.82654 22 7.81502 21.3066 6.17461 20.129Z" fill="#09C39F"/>
<circle cx="12" cy="12" r="9" fill="#11A07D"/>
<path fill-rule="evenodd" clip-rule="evenodd" d="M13.2568 17.6236C13.2568 17.8307 13.0836 18 12.8718 18H12.1061C11.8943 18 11.7209 17.8307 11.7209 17.6236V16.439C10.0453 16.218 9.22699 15.3009 9.00542 14.055C8.96677 13.8432 9.14007 13.6505 9.36163 13.6505H10.238C10.4209 13.6505 10.5751 13.7776 10.6136 13.956C10.7774 14.699 11.2155 15.2679 12.5587 15.2679C13.5506 15.2679 14.2537 14.7271 14.2537 13.9188C14.2537 13.1097 13.8395 12.8042 12.3854 12.5689C10.238 12.2868 9.22211 11.6519 9.22211 10.0063C9.22211 8.73679 10.2045 7.74949 11.7259 7.53776V6.37633C11.7259 6.16936 11.8993 6 12.111 6H12.8766C13.0884 6 13.2618 6.16936 13.2618 6.37633V7.57073C14.4992 7.78737 15.284 8.47341 15.5393 9.61126C15.5873 9.8279 15.414 10.0296 15.1879 10.0296H14.3788C14.2055 10.0296 14.0611 9.91674 14.0082 9.75228C13.7916 9.0285 13.2618 8.71825 12.342 8.71825C11.3261 8.71825 10.8012 9.19773 10.8012 9.87C10.8012 10.58 11.1 10.9371 12.6601 11.1585C14.7688 11.4406 15.8571 12.0282 15.8571 13.7825C15.8571 15.113 14.8459 16.1899 13.2618 16.439V17.6236H13.2568Z" fill="white"/>
</g>
<defs>
<clipPath id="clip0_7937_89975">
<rect width="24" height="24" fill="white"/>
</clipPath>
</defs>
</svg>
