<svg width="24" height="24" viewBox="0 0 24 24" fill="none" xmlns="http://www.w3.org/2000/svg">
<g clip-path="url(#clip0_7937_89973)">
<circle cx="12" cy="12" r="9" fill="#53AE94"/>
<path fill-rule="evenodd" clip-rule="evenodd" d="M23.9589 13C23.478 18.8298 18.8298 23.478 13 23.9589V21.9506C17.7244 21.4816 21.4816 17.7244 21.9506 13H23.9589ZM23.9589 11C23.478 5.1702 18.8298 0.522025 13 0.0410767V2.04938C17.7244 2.51845 21.4816 6.27558 21.9506 11H23.9589ZM2.04938 11C2.51845 6.27559 6.27559 2.51845 11 2.04938V0.0410767C5.17021 0.522025 0.522027 5.1702 0.0410771 11H2.04938ZM0.0410767 13C0.522024 18.8298 5.1702 23.478 11 23.9589V21.9506C6.27558 21.4816 2.51845 17.7244 2.04938 13H0.0410767Z" fill="#53AE94"/>
<path fill-rule="evenodd" clip-rule="evenodd" d="M13.2208 12.9131C13.1526 12.9182 12.8004 12.9391 12.0145 12.9391C11.3895 12.9391 10.9457 12.9204 10.79 12.9131C8.37455 12.8073 6.57162 12.3889 6.57162 11.8879C6.57162 11.3868 8.37455 10.969 10.79 10.8616V12.4963C10.9479 12.5076 11.4003 12.5342 12.0253 12.5342C12.7753 12.5342 13.151 12.5031 13.2185 12.4969V10.8627C15.6289 10.9696 17.4278 11.388 17.4278 11.8879C17.4278 12.3877 15.6295 12.8062 13.2185 12.9125L13.2208 12.9131ZM13.2208 10.6936V9.23077H16.5846V7H7.4262V9.23077H10.7894V10.6931C8.05578 10.818 6 11.3569 6 12.0026C6 12.6484 8.05578 13.1867 10.7894 13.3123V18H13.2203V13.3106C15.9476 13.1856 18 12.6472 18 12.0021C18 11.3569 15.9493 10.8186 13.2203 10.6931L13.2208 10.6936Z" fill="white"/>
</g>
<defs>
<clipPath id="clip0_7937_89973">
<rect width="24" height="24" fill="white"/>
</clipPath>
</defs>
</svg>
