<svg width="24" height="24" viewBox="0 0 24 24" fill="none" xmlns="http://www.w3.org/2000/svg">
<g clip-path="url(#clip0_7937_89974)">
<circle cx="12" cy="12" r="9" fill="#2775CA"/>
<path fill-rule="evenodd" clip-rule="evenodd" d="M10.2509 18.69C10.2509 18.9199 10.079 19.0505 9.86674 18.9811C7.0455 18.0386 5 15.2685 5 11.9998C5 8.73125 7.0455 5.96093 9.86674 5.01847C10.079 4.94951 10.2509 5.07964 10.2509 5.30948V5.87687C10.2509 6.02988 10.1377 6.20998 9.99843 6.25983C7.76631 7.11813 6.16732 9.36359 6.16732 11.9959C6.16732 14.6282 7.76631 16.8741 9.99843 17.732C10.1377 17.7857 10.2509 17.9618 10.2509 18.1153V18.69Z" fill="white"/>
<path fill-rule="evenodd" clip-rule="evenodd" d="M12.4488 16.6863C12.4488 16.8589 12.3085 17 12.1369 17H11.5165C11.3449 17 11.2045 16.8589 11.2045 16.6863V15.6991C9.84688 15.515 9.1839 14.7507 9.00439 13.7125C8.97308 13.536 9.11348 13.3754 9.29298 13.3754H10.003C10.1512 13.3754 10.2761 13.4813 10.3073 13.63C10.44 14.2491 10.795 14.7233 11.8832 14.7233C12.6868 14.7233 13.2565 14.2726 13.2565 13.599C13.2565 12.9247 12.9209 12.6702 11.7428 12.4741C10.003 12.239 9.17995 11.7099 9.17995 10.3386C9.17995 9.28065 9.97586 8.45791 11.2085 8.28146V7.3136C11.2085 7.14114 11.349 7 11.5205 7H12.1408C12.3124 7 12.4528 7.14114 12.4528 7.3136V8.30894C13.4554 8.48948 14.0912 9.06117 14.2981 10.0094C14.337 10.1899 14.1965 10.358 14.0133 10.358H13.3578C13.2174 10.358 13.1004 10.264 13.0575 10.1269C12.882 9.52375 12.4528 9.26521 11.7077 9.26521C10.8846 9.26521 10.4593 9.66478 10.4593 10.225C10.4593 10.8167 10.7014 11.1143 11.9654 11.2988C13.6738 11.5338 14.5556 12.0235 14.5556 13.4854C14.5556 14.5942 13.7363 15.4916 12.4528 15.6991V16.6863H12.4488Z" fill="white"/>
<path fill-rule="evenodd" clip-rule="evenodd" d="M14.1331 18.9814C13.9211 19.0507 13.749 18.9201 13.749 18.6904V18.1234C13.749 17.9547 13.8479 17.7977 14.0015 17.74C16.2336 16.8817 17.8326 14.6362 17.8326 12.0039C17.8326 9.37161 16.2336 7.12615 14.0015 6.26785C13.8625 6.21411 13.749 6.03801 13.749 5.88445V5.3175C13.749 5.08766 13.9211 4.95364 14.1331 5.02603C16.9544 5.96906 18.9999 8.73926 18.9999 12.0078C18.9964 15.2685 16.9544 18.035 14.1331 18.9814Z" fill="white"/>
<path fill-rule="evenodd" clip-rule="evenodd" d="M23.9589 13C23.4779 18.8298 18.8297 23.478 12.9999 23.9589V21.9506C17.7244 21.4816 21.4815 17.7244 21.9506 13H23.9589ZM23.9589 11C23.4779 5.1702 18.8297 0.522025 12.9999 0.0410767V2.04938C17.7244 2.51845 21.4815 6.27558 21.9506 11H23.9589ZM2.04932 11C2.51839 6.27559 6.27553 2.51845 10.9999 2.04938V0.0410767C5.17015 0.522025 0.521966 5.1702 0.0410161 11H2.04932ZM0.0410156 13C0.521963 18.8298 5.17014 23.478 10.9999 23.9589V21.9506C6.27552 21.4816 2.51838 17.7244 2.04932 13H0.0410156Z" fill="#2775CA"/>
</g>
<defs>
<clipPath id="clip0_7937_89974">
<rect width="24" height="24" fill="white"/>
</clipPath>
</defs>
</svg>
