<svg width="24" height="24" viewBox="0 0 24 24" fill="none" xmlns="http://www.w3.org/2000/svg">
<g clip-path="url(#clip0_2718_41750)">
<mask id="mask0_2718_41750" style="mask-type:luminance" maskUnits="userSpaceOnUse" x="6" y="6" width="12" height="12">
<path d="M18 12C18 8.68629 15.3137 6 12 6C8.68629 6 6 8.68629 6 12C6 15.3137 8.68629 18 12 18C15.3137 18 18 15.3137 18 12Z" fill="white"/>
</mask>
<g mask="url(#mask0_2718_41750)">
<mask id="mask1_2718_41750" style="mask-type:luminance" maskUnits="userSpaceOnUse" x="6" y="6" width="12" height="12">
<path d="M18 6H6V18H18V6Z" fill="white"/>
</mask>
<g mask="url(#mask1_2718_41750)">
<path d="M12 18C15.325 18 18 15.325 18 12C18 8.67498 15.325 6 12 6C8.67498 6 6 8.67498 6 12C6 15.325 8.67498 18 12 18Z" fill="#2775CA"/>
<path fill-rule="evenodd" clip-rule="evenodd" d="M8.50051 10.775C7.77547 12.7 8.77549 14.875 10.7255 15.575C10.8005 15.625 10.8755 15.7249 10.8755 15.7999V16.15C10.8755 16.2 10.8755 16.225 10.8505 16.25C10.8255 16.35 10.7255 16.4 10.6255 16.35C9.22549 15.9 8.15047 14.825 7.70047 13.425C6.95047 11.05 8.25049 8.52496 10.6255 7.77496C10.6505 7.75 10.7005 7.75 10.7255 7.75C10.8255 7.77496 10.8755 7.84996 10.8755 7.94998V8.29996C10.8755 8.425 10.8255 8.5 10.7255 8.54998C9.70051 8.92498 8.87551 9.72496 8.50051 10.775ZM13.1505 7.87498C13.1755 7.77496 13.2755 7.72498 13.3755 7.77496C14.7505 8.22496 15.8505 9.29998 16.3005 10.725C17.0505 13.0999 15.7505 15.625 13.3755 16.375C13.3505 16.4 13.3005 16.4 13.2755 16.4C13.1755 16.375 13.1255 16.3 13.1255 16.2V15.85C13.1255 15.725 13.1755 15.65 13.2755 15.6C14.3005 15.225 15.1255 14.425 15.5005 13.375C16.2255 11.4499 15.2255 9.27496 13.2755 8.575C13.2005 8.52496 13.1255 8.425 13.1255 8.32498V7.975C13.1255 7.92496 13.1255 7.9 13.1505 7.87498ZM12.0758 11.6498C13.1258 11.7748 13.6508 12.0749 13.6508 12.9498C13.6508 13.6248 13.1508 14.1498 12.4008 14.2748V14.8749C12.3758 14.9999 12.3008 15.0749 12.2008 15.0749H11.8258C11.7008 15.0498 11.6258 14.9748 11.6258 14.8749V14.2748C10.8008 14.1498 10.4007 13.6998 10.3008 13.0749V13.0498C10.3008 12.9498 10.3758 12.8748 10.4757 12.8748H10.9008C10.9758 12.8748 11.0508 12.9248 11.0758 13.0248C11.1508 13.3998 11.3758 13.6748 12.0258 13.6748C12.5008 13.6748 12.8508 13.3998 12.8508 12.9998C12.8508 12.5998 12.6258 12.4499 11.9258 12.3249C10.8758 12.1998 10.3758 11.8748 10.3758 11.0498C10.3758 10.4248 10.8507 9.92484 11.6008 9.82483V9.24985C11.6258 9.1248 11.7008 9.0498 11.8008 9.0498H12.1758C12.3008 9.07482 12.3758 9.14982 12.3758 9.24985V9.84984C12.9507 9.89982 13.4007 10.3248 13.5008 10.8748V10.8998C13.5008 10.9998 13.4258 11.0748 13.3257 11.0748H12.9258C12.8508 11.0748 12.7758 11.0249 12.7508 10.9498C12.6258 10.5748 12.3758 10.4248 11.9258 10.4248C11.4258 10.4248 11.1758 10.6498 11.1758 10.9998C11.1758 11.3499 11.3258 11.5498 12.0758 11.6498Z" fill="white"/>
</g>
<path opacity="0.7" d="M19 13H4.5V16.5H19V13Z" fill="black"/>
<path d="M9.10217 16H7.5V13.5H9.10217V13.8409H7.86973V14.5227H8.85568V14.8637H7.86973V15.6591H9.10217V16Z" fill="white"/>
<path d="M10.9517 16H10.5819V15.5455H10.4587V15.3182H10.3354V15.0909H10.2122V14.8637H9.71922V16H9.34949V13.5H10.5819V13.6136H10.7052V13.7273H10.8284V13.8409H10.9517V14.5227H10.8284V14.6363H10.7052V14.75H10.5819V14.9773H10.7052V15.2045H10.8284V15.4318H10.9517V16ZM10.5819 14.4091V13.9545H10.4587V13.8409H9.71922V14.5227H10.4587V14.4091H10.5819Z" fill="white"/>
<path d="M12.8011 15.6591H12.6779V15.7727H12.5546V15.8863H12.4314V16H11.6919V15.8863H11.5687V15.7727H11.4454V15.6591H11.3222V15.5455H11.1989V13.9545H11.3222V13.8409H11.4454V13.7273H11.5687V13.6136H11.6919V13.5H12.4314V13.6136H12.5546V13.7273H12.6779V13.8409H12.8011V14.1818H12.4314V13.9545H12.3081V13.8409H11.8152V13.9545H11.6919V14.0682H11.5687V15.4318H11.6919V15.5455H11.8152V15.6591H12.3081V15.5455H12.4314V15.3182H12.8011V15.6591Z" fill="white"/>
</g>
</g>
<g clip-path="url(#clip1_2718_41750)">
<mask id="mask2_2718_41750" style="mask-type:luminance" maskUnits="userSpaceOnUse" x="6" y="6" width="12" height="12">
<path d="M18 12C18 8.68629 15.3137 6 12 6C8.68629 6 6 8.68629 6 12C6 15.3137 8.68629 18 12 18C15.3137 18 18 15.3137 18 12Z" fill="white"/>
</mask>
<g mask="url(#mask2_2718_41750)">
<mask id="mask3_2718_41750" style="mask-type:alpha" maskUnits="userSpaceOnUse" x="6" y="6" width="12" height="12">
<path d="M12.0001 6C8.68636 6 6 8.68618 6 11.9999C6 15.3135 8.68636 18 12.0001 18C15.3137 18 18 15.3135 18 11.9999C18 8.68618 15.3137 6 12.0001 6Z" fill="#4EAF94"/>
</mask>
<g mask="url(#mask3_2718_41750)">
<path d="M12.0001 6C8.68636 6 6 8.68618 6 11.9999C6 15.3135 8.68636 18 12.0001 18C15.3137 18 18 15.3135 18 11.9999C18 8.68618 15.3137 6 12.0001 6Z" fill="#4EAF94"/>
<path fill-rule="evenodd" clip-rule="evenodd" d="M12.6274 15V12.6642C14.0526 12.5856 15.1249 12.2444 15.125 11.8356C15.125 11.4268 14.0526 11.0857 12.6276 11.0071L12.6274 10.3557H14.4068V9H9.54139V10.3557H11.3205V11.0102C9.92154 11.0943 8.875 11.4318 8.875 11.8356C8.875 12.2394 9.92154 12.577 11.3205 12.661V15H12.6274ZM12.6276 11.9482V11.1553C13.8547 11.2115 14.7695 11.4293 14.7696 11.6897C14.7696 11.9929 13.5295 12.2384 12 12.2384C10.4704 12.2384 9.23043 11.9929 9.23043 11.6897C9.23043 11.4331 10.1195 11.2176 11.3206 11.1576V11.3121L11.3208 11.9452C11.5373 11.9577 11.7648 11.9644 11.9999 11.9644C12.2163 11.9644 12.4266 11.9587 12.6276 11.9482Z" fill="white"/>
<path opacity="0.7" d="M19 13H4.5V16.5H19V13Z" fill="black"/>
<path d="M12.8011 15.6591H12.6779V15.7727H12.5546V15.8863H12.4314V16H11.6919V15.8863H11.5687V15.7727H11.4454V15.6591H11.3222V15.5455H11.1989V13.9545H11.3222V13.8409H11.4454V13.7273H11.5687V13.6136H11.6919V13.5H12.4314V13.6136H12.5546V13.7273H12.6779V13.8409H12.8011V14.1818H12.4314V13.9545H12.3081V13.8409H11.8152V13.9545H11.6919V14.0682H11.5687V15.4318H11.6919V15.5455H11.8152V15.6591H12.3081V15.5455H12.4314V15.3182H12.8011V15.6591Z" fill="white"/>
<path d="M14.6505 16H13.0483V15.0909H13.1716V14.9773H13.2948V14.8637H13.4181V14.75H13.5413V14.6363H14.0343V14.5227H14.1575V14.4091H14.2808V13.9545H14.1575V13.8409H13.5413V13.9545H13.4181V14.1818H13.0483V13.8409H13.1716V13.7273H13.2948V13.6136H13.4181V13.5H14.2808V13.6136H14.404V13.7273H14.5273V13.8409H14.6505V14.5227H14.5273V14.6363H14.404V14.75H14.2808V14.8637H14.1575V14.9773H13.6646V15.0909H13.5413V15.2045H13.4181V15.6591H14.6505V16Z" fill="white"/>
<path d="M16.5 15.5455H16.3767V15.6591H16.2535V15.7727H16.1302V15.8863H16.007V16H15.3908V15.8863H15.2675V15.7727H15.1443V15.6591H15.0211V15.5455H14.8978V13.9545H15.0211V13.8409H15.1443V13.7273H15.2675V13.6136H15.3908V13.5H16.007V13.6136H16.1302V13.7273H16.2535V13.8409H16.3767V13.9545H16.5V15.5455ZM16.007 14.0682V13.9545V13.8409H15.3908V13.9545H15.2675V15.2045H15.3908V14.9773H15.514V14.75H15.6373V14.5227H15.7605V14.2955H15.8838V14.0682H16.007ZM16.1302 15.5455V14.4091H16.007V14.6363H15.8838V14.8637H15.7605V15.0909H15.6373V15.3182H15.514V15.5455H15.3908V15.6591H16.007V15.5455H16.1302Z" fill="white"/>
</g>
</g>
</g>
<path d="M13 23.9589C19.1595 23.4508 24 18.2907 24 12C24 5.70934 19.1595 0.549228 13 0.0410767V4.0619C16.9463 4.55399 20 7.92038 20 12C20 16.0796 16.9463 19.446 13 19.9381V23.9589Z" fill="#4EAF94"/>
<path d="M11 4.0619C7.05369 4.554 4 7.92038 4 12C4 16.0796 7.05369 19.446 11 19.9381V23.9589C4.84047 23.4508 0 18.2907 0 12C0 5.70934 4.84047 0.549228 11 0.0410767V4.0619Z" fill="#2775CA"/>
<defs>
<clipPath id="clip0_2718_41750">
<rect width="6" height="12" fill="white" transform="translate(6 6)"/>
</clipPath>
<clipPath id="clip1_2718_41750">
<rect width="6" height="12" fill="white" transform="translate(12 6)"/>
</clipPath>
</defs>
</svg>
