<svg width="100" height="100" viewBox="0 0 100 100" fill="none" xmlns="http://www.w3.org/2000/svg">
<g clip-path="url(#clip0_173_1471)">
<path d="M0 0C33 0 66 0 100 0C100 33 100 66 100 100C67 100 34 100 0 100C0 67 0 34 0 0Z" fill="#131618"/>
<path d="M32 13C32.33 13 32.66 13 33 13C33.1469 13.8701 33.1469 13.8701 33.2968 14.7578C34.8687 22.9696 37.6323 27.161 44.5 32.0625C45.9076 33.008 45.9076 33.008 47.3437 33.9727C51.5084 37.1513 53.7305 39.6301 54.75 44.8125C54.8325 45.8644 54.915 46.9162 55 48C54.67 47.34 54.34 46.68 54 46C53.01 45.67 52.02 45.34 51 45C51 44.34 51 43.68 51 43C49.3293 43.0619 49.3293 43.0619 47.625 43.125C44 43 44 43 42 41C41.4332 47.8016 43.1436 52.3765 47.3671 57.7344C51.9258 62.3157 57.0847 63.2881 63.3046 64.457C66 65 66 65 67 66C66.9496 69.239 66.8019 72.4677 66.6445 75.7031C67.0792 79.7352 68.1651 81.1553 71 84C73.1792 85.7555 73.1792 85.7555 75.5 87.1875C76.2528 87.6761 77.0056 88.1646 77.7812 88.668C79.8146 89.8887 81.8624 90.975 84 92C73.1114 92.6252 73.1114 92.6252 69 90.3125C66.9303 87.9195 64.8987 85.5316 63 83C61.02 83.495 61.02 83.495 59 84C59 83.34 59 82.68 59 82C57.02 82.495 57.02 82.495 55 83C55.495 87.455 55.495 87.455 56 92C52 90 52 90 50 88C47.9312 87.3575 47.9312 87.3575 46 87C45.3812 87.8044 44.7625 88.6087 44.125 89.4375C42 92 42 92 40 93C38.1262 93.0703 36.2499 93.0843 34.375 93.0625C33.3721 93.0535 32.3692 93.0445 31.3359 93.0352C30.565 93.0236 29.7942 93.012 29 93C28.9252 92.4173 28.8504 91.8347 28.7734 91.2344C27.9162 85.8893 26.4696 81.7046 23.875 76.9375C21.0074 71.5303 20.3154 68.0635 21 62C21.33 61.34 21.66 60.68 22 60C22.66 60 23.32 60 24 60C24.5568 61.1963 25.1137 62.3925 25.6875 63.625C27.1056 66.5065 28.2716 68.292 30.5 70.6875C34.5146 75.1496 37 83.0368 37 89C37.66 89 38.32 89 39 89C39.1933 88.3967 39.3867 87.7934 39.5859 87.1719C39.8463 86.3727 40.1067 85.5734 40.375 84.75C40.7578 83.5666 40.7578 83.5666 41.1484 82.3594C42 80 42 80 43.1015 77.8906C44.2146 75.8973 44.2146 75.8973 44 73C43.2368 72.4225 42.4737 71.845 41.6875 71.25C38.421 68.5153 37.0254 66.0601 36 62C35.6461 57.5131 35.7168 53.0597 35.8125 48.5625C35.826 47.354 35.8395 46.1455 35.8535 44.9004C35.8887 41.9331 35.9379 38.9668 36 36C35.0641 35.8105 35.0641 35.8105 34.1093 35.6172C32 35 32 35 30.25 33.125C27.8823 27.2059 28.1143 21.1772 30.5 15.3125C30.995 14.5494 31.49 13.7862 32 13Z" fill="#5D9EF7"/>
<path d="M32 13C32.33 13 32.66 13 33 13C33.0979 13.5801 33.1959 14.1602 33.2968 14.7578C34.8687 22.9696 37.6324 27.161 44.5 32.0625C45.9076 33.008 45.9076 33.008 47.3437 33.9727C51.5085 37.1513 53.7305 39.6301 54.75 44.8125C54.8325 45.8644 54.915 46.9162 55 48C54.67 47.34 54.34 46.68 54 46C52.515 45.505 52.515 45.505 51 45C51 44.34 51 43.68 51 43C49.3293 43.0619 49.3293 43.0619 47.625 43.125C44 43 44 43 42 41C41.8968 41.9281 41.7937 42.8563 41.6875 43.8125C40.9947 47.0246 40.6121 48.1193 38 50C37.34 50 36.68 50 36 50C36 45.38 36 40.76 36 36C34.68 35.67 33.36 35.34 32 35C28.3483 31.0875 28.5718 26.7465 28.6953 21.6719C29.079 18.3071 30.1639 15.8306 32 13Z" fill="#005BB8"/>
</g>
<defs>
<clipPath id="clip0_173_1471">
<rect width="100" height="100" rx="50" fill="white"/>
</clipPath>
</defs>
</svg>
