<svg width="36" height="36" viewBox="0 0 36 36" fill="none" xmlns="http://www.w3.org/2000/svg"><g clip-path="url(#clip0_2227_3421)"><mask id="mask0_2227_3421" style="mask-type:alpha" maskUnits="userSpaceOnUse" x="0" y="0" width="36" height="36"><path d="M18.0001 0C8.05907 0 0 8.05856 0 17.9998C0 27.9406 8.05907 36 18.0001 36C27.9411 36 36 27.9406 36 17.9998C36 8.05856 27.9409 0 18.0001 0Z" fill="#4EAF94"/></mask><g mask="url(#mask0_2227_3421)"><path d="M17.6495 0L17.4082 0.820144V24.6188L17.6495 24.8597L28.6966 18.3298L17.6495 0Z" fill="#343434"/><path d="M17.6447 0L6.59766 18.3298L17.6447 24.8598V13.3086V0Z" fill="#8C8C8C"/><path d="M17.6496 26.9524L17.5137 27.1182V35.5958L17.6496 35.993L28.7033 20.4258L17.6496 26.9524Z" fill="#3C3C3B"/><path d="M17.6447 35.993V26.9524L6.59766 20.4258L17.6447 35.993Z" fill="#8C8C8C"/><path d="M17.6484 24.8606L28.6953 18.3307L17.6484 13.3096V24.8606Z" fill="#141414"/><path d="M6.59766 18.3308L17.6446 24.8606V13.3096L6.59766 18.3308Z" fill="#393939"/><rect opacity="0.7" x="-4" y="19.5" width="43.9091" height="10.5" fill="black"/><path d="M15.7172 28.5H11.1411V21H15.7172V22.0227H12.1971V24.0682H15.0132V25.0909H12.1971V27.4773H15.7172V28.5Z" fill="white"/><path d="M20.9997 22.0227H19.2396V28.5H18.1836V22.0227H16.4235V21H20.9997V22.0227Z" fill="white"/><path d="M26.2821 28.5H25.2261V25.0909H22.762V28.5H21.706V21H22.762V24.0682H25.2261V21H26.2821V28.5Z" fill="white"/></g></g><defs><clipPath id="clip0_2227_3421"><rect width="36" height="36" rx="18" fill="white"/></clipPath></defs></svg>