<svg width="100" height="100" viewBox="0 0 100 100" fill="none" xmlns="http://www.w3.org/2000/svg">
<path fill-rule="evenodd" clip-rule="evenodd" d="M78.777 21.2412L66.8631 9.69504L50.2746 9.42438L33.6858 9.68435L21.7646 21.2228L10.2184 33.1366L9.94775 49.7252L10.2077 66.3139L21.7462 78.2351L33.66 89.7813L50.2485 90.052L56.904 89.9477C51.7213 85.5779 48.4291 79.0372 48.4291 71.7275C48.4291 58.5711 59.0945 47.9057 72.2509 47.9057C79.5585 47.9057 86.0974 51.1961 90.4672 56.376L90.5753 49.7512L90.3153 33.1624L78.777 21.2412Z" fill="black"/>
<path fill-rule="evenodd" clip-rule="evenodd" d="M50.2757 6.25919L68.1666 6.5511L81.016 19.0039L93.4604 31.861L93.7407 49.7523L93.6538 55.0777C94.371 55.7599 95.0507 56.4812 95.6892 57.2382L95.8114 49.7529L95.5176 31.0096L82.4806 17.5401L69.0194 4.49429L50.2763 4.18848L31.533 4.48221L18.0635 17.5193L5.01773 30.9804L4.71191 49.7235L5.00564 68.4668L18.0427 81.9363L31.5038 94.9821L50.2469 95.2879L57.7668 95.1701C57.009 94.5312 56.2868 93.851 55.604 93.1332L50.2476 93.2173L32.3567 92.9253L19.5074 80.4725L7.063 67.6154L6.78263 49.7241L7.07454 31.8332L19.5272 18.984L32.3844 6.53957L50.2757 6.25919Z" fill="#66DDDD"/>
<path fill-rule="evenodd" clip-rule="evenodd" d="M24.9653 39.3345C19.8335 53.0007 26.9117 68.4415 40.7136 73.4106C42.4104 74.546 42.1954 80.0103 40.0057 78.9127C30.0967 75.718 22.4877 68.0862 19.3026 58.1475C13.9941 41.287 23.1957 23.3613 40.0057 18.0369C41.4698 16.5718 43.0573 22.3643 40.7136 23.5389C33.4589 26.201 27.6195 31.8802 24.9653 39.3345ZM58.7625 23.7165C57.2151 22.681 56.9192 16.7582 59.4705 18.0369C69.2025 21.2315 76.9884 28.8634 80.1736 38.9796C81.1743 42.1582 81.6594 45.3746 81.6751 48.5374C79.9014 48.1123 78.0606 47.8612 76.1714 47.8027C75.8524 37.31 69.2478 27.4916 58.7625 23.7165ZM61.0638 51.819C59.9721 47.8425 56.3748 46.2761 50.2718 45.5475C44.9629 44.8374 43.9012 43.4175 43.9012 40.9324C43.9012 38.4471 45.6709 36.8502 49.2101 36.8502C52.3953 36.8502 54.1652 37.9151 55.0497 40.5775C55.6182 42.2867 60.3586 42.0055 60.3586 40.2227C60.3586 36.2472 55.9634 33.0789 52.3953 32.7678V28.5082C52.3953 26.3808 47.3558 26.2704 46.9094 28.5082V32.5903C41.6005 33.3004 38.2385 36.8502 38.2385 41.2876C38.2385 47.145 41.7777 49.4519 49.2101 50.3397C54.1652 51.2271 55.7579 52.2921 55.7579 55.132C55.7579 55.5106 55.7138 55.8732 55.6295 56.2175C57.242 54.5298 59.0679 53.0493 61.0638 51.819ZM53.1565 59.2019C52.2447 59.6666 51.1398 59.9244 49.918 59.9244C45.3167 59.9244 43.724 57.9717 43.1932 55.3093C42.7136 53.3826 37.7075 53.6262 37.7075 55.487V55.6646C38.4151 60.1015 41.2467 63.2965 47.0866 64.1843V68.444C47.0866 69.257 47.713 69.7445 48.5434 69.949C49.2992 65.9985 50.9026 62.3502 53.1565 59.2019Z" fill="white"/>
<path d="M72.5 91C82.7173 91 91 82.7173 91 72.5C91 62.2827 82.7173 54 72.5 54C62.2827 54 54 62.2827 54 72.5C54 82.7173 62.2827 91 72.5 91Z" fill="#AEB6FC"/>
<path d="M79.2272 72.0228L72.3513 60.5948V68.8714L79.2272 72.0228Z" fill="white"/>
<path opacity="0.8" d="M72.3505 68.8722V60.5956L65.4746 72.0237L72.3505 68.8722Z" fill="white"/>
<path d="M72.3513 78.3587V83.9613L79.2272 74.2841L72.3513 78.3587Z" fill="white"/>
<path opacity="0.9" d="M65.4741 74.2841L72.3501 83.9613V78.3587L65.4741 74.2841Z" fill="white"/>
<path d="M72.3513 76.0653L79.2272 72.0225L72.3513 68.871V76.0653Z" fill="white"/>
<path opacity="0.7" d="M72.3501 68.871L65.4741 72.0225L72.3501 76.0653V68.871Z" fill="white"/>
</svg>
