<svg width="100" height="100" viewBox="0 0 100 100" fill="none" xmlns="http://www.w3.org/2000/svg">
<path fill-rule="evenodd" clip-rule="evenodd" d="M50.2757 6.25919L68.1666 6.5511L81.016 19.0039L93.4604 31.861L93.7407 49.7523L93.6538 55.0777C94.371 55.7599 95.0507 56.4812 95.6892 57.2382L95.8114 49.7529L95.5176 31.0096L82.4806 17.5401L69.0194 4.49429L50.2763 4.18848L31.533 4.48221L18.0635 17.5193L5.01773 30.9804L4.71191 49.7235L5.00564 68.4668L18.0427 81.9363L31.5038 94.9821L50.2469 95.2879L57.7668 95.1701C57.009 94.5312 56.2868 93.851 55.604 93.1332L50.2476 93.2173L32.3567 92.9253L19.5074 80.4725L7.063 67.6154L6.78263 49.7241L7.07454 31.8332L19.5272 18.984L32.3844 6.53957L50.2757 6.25919Z" fill="#66DDDD"/>
<path fill-rule="evenodd" clip-rule="evenodd" d="M78.777 21.2412L66.8631 9.69504L50.2746 9.42438L33.6858 9.68435L21.7646 21.2228L10.2184 33.1366L9.94775 49.7252L10.2077 66.3139L21.7462 78.2351L33.66 89.7813L50.2485 90.052L56.904 89.9477C51.7213 85.5779 48.4291 79.0372 48.4291 71.7275C48.4291 58.5711 59.0945 47.9057 72.2509 47.9057C79.5585 47.9057 86.0974 51.1961 90.4672 56.376L90.5753 49.7512L90.3153 33.1624L78.777 21.2412Z" fill="black"/>
<path d="M72.5 91C82.7173 91 91 82.7173 91 72.5C91 62.2827 82.7173 54 72.5 54C62.2827 54 54 62.2827 54 72.5C54 82.7173 62.2827 91 72.5 91Z" fill="#7052CC"/>
<path d="M79.1724 68.2932C78.7064 68.0167 78.1627 68.0167 77.6579 68.2932L74.0854 70.4262L71.6779 71.8087L68.183 73.9418C67.717 74.2183 67.1734 74.2183 66.6686 73.9418L63.9115 72.2432C63.4455 71.9667 63.1349 71.4532 63.1349 70.8607V67.6217C63.1349 67.1082 63.4067 66.5947 63.9115 66.2392L66.6686 64.6196C67.1346 64.3431 67.6782 64.3431 68.183 64.6196L70.9401 66.3181C71.406 66.5946 71.7167 67.1082 71.7167 67.7007V69.8337L74.1243 68.4117V66.1996C74.1243 65.6861 73.8524 65.1726 73.3476 64.8171L68.2607 61.7756C67.7947 61.4991 67.251 61.4991 66.7462 61.7756L61.5039 64.8961C60.9991 65.1726 60.7273 65.6861 60.7273 66.1996V72.2828C60.7273 72.7963 60.9991 73.3098 61.5039 73.6653L66.6686 76.7068C67.1346 76.9833 67.6782 76.9833 68.183 76.7068L71.6779 74.6133L74.0854 73.1913L77.5803 71.0977C78.0463 70.8212 78.5899 70.8212 79.0947 71.0977L81.8518 72.7173C82.3178 72.9938 82.6284 73.5073 82.6284 74.0998V77.3388C82.6284 77.8523 82.3566 78.3659 81.8518 78.7214L79.1724 80.3409C78.7064 80.6174 78.1627 80.6174 77.6579 80.3409L74.9009 78.7214C74.4349 78.4449 74.1243 77.9313 74.1243 77.3388V75.2453L71.7167 76.6673V78.8004C71.7167 79.3139 71.9885 79.8274 72.4933 80.1829L77.6579 83.2244C78.1239 83.5009 78.6676 83.5009 79.1724 83.2244L84.337 80.1829C84.803 79.9064 85.1137 79.3929 85.1137 78.8004V72.6382C85.1137 72.1247 84.8418 71.6112 84.337 71.2557L79.1724 68.2932Z" fill="white"/>
<mask id="mask0_5436_36939" style="mask-type:alpha" maskUnits="userSpaceOnUse" x="9" y="9" width="82" height="82">
<path fill-rule="evenodd" clip-rule="evenodd" d="M78.777 21.2412L66.8631 9.69504L50.2746 9.42438L33.6858 9.68435L21.7646 21.2228L10.2184 33.1366L9.94775 49.7252L10.2077 66.3139L21.7462 78.2351L33.66 89.7813L50.2485 90.052L56.904 89.9477C51.7213 85.5779 48.4291 79.0372 48.4291 71.7275C48.4291 58.5711 59.0945 47.9057 72.2509 47.9057C79.5585 47.9057 86.0974 51.1961 90.4672 56.376L90.5753 49.7512L90.3153 33.1624L78.777 21.2412Z" fill="black"/>
</mask>
<g mask="url(#mask0_5436_36939)">
<path d="M55.2861 52.9453V52.9378C54.9613 52.9603 53.2844 53.0576 49.5529 53.0576C46.5692 53.0576 44.4768 52.9753 43.7366 52.9378V52.9453C32.2625 52.444 23.7042 50.4688 23.7042 48.097C23.7042 45.7327 32.2701 43.7499 43.7366 43.2486V50.9776C44.4844 51.0299 46.6372 51.1571 49.6058 51.1571C53.1711 51.1571 54.9538 51.0075 55.2861 50.9776V43.2561C66.7375 43.7649 75.2731 45.7401 75.2731 48.1045C75.2731 50.4688 66.7299 52.444 55.2861 52.9528V52.9453ZM55.2861 42.4555V35.5422H71.2621V25H27.7681V35.5422H43.7441V42.4555C30.7593 43.0466 21 45.5905 21 48.6432C21 51.6958 30.7669 54.2397 43.7441 54.8383V77H55.2937V54.8383C68.2558 54.2472 78 51.7033 78 48.6506C78 45.6055 68.2558 43.0541 55.2937 42.463" fill="white"/>
</g>
</svg>
