<svg xmlns="http://www.w3.org/2000/svg" fill-rule="evenodd" clip-rule="evenodd" image-rendering="optimizeQuality" shape-rendering="geometricPrecision" text-rendering="geometricPrecision" viewBox="0 0 2928.95 2928.95"><defs><linearGradient id="id0" x1="2091.46" x2="771.25" y1="2615.29" y2="328.62" gradientUnits="userSpaceOnUse"><stop offset="0" stop-color="#d3e8ff"/><stop offset="1" stop-color="#fff"/></linearGradient><style>.fil0{fill:#3e45fb}</style></defs><g id="Layer_x0020_1"><circle cx="1464.47" cy="1464.47" r="1464.47" class="fil0"/><circle cx="1464.47" cy="1464.47" r="1351.68" fill="url(#id0)"/><path fill="#b7e5dd" d="m1578.12 783.64-443.69.64V354.79c0-48.51 32.51-72.93 72.25-54.26l980.27 460.6c16.42 7.71 29.86 30.42 29.86 50.47v1710.06c0 38.5-29.37 62.08-65.26 52.38l-534.07-144.32c-21.63-5.84-39.36-29.63-39.36-52.86V783.64z"/><path fill="#ecd0d3" d="M1465.87 878.51v1445.03c0 36.27-28.97 55.46-66.74 45.4l-768.48-204.65c-20.75-5.53-37.73-28.24-37.73-50.47v-900.37c0-23.67 16.88-49.52 37.51-57.43l797.92-306.15c20.64-7.91 37.52 4.97 37.52 28.64z"/><path fill="#7a9de3" d="M791.29 1530.12c0-22.73 18.6-41.33 41.33-41.33h676.98c22.74 0 41.34 18.6 41.34 41.33 0 22.73-18.61 41.34-41.34 41.34H832.62c-22.72 0-41.33-18.6-41.33-41.34zm0-129.14c0-22.73 18.6-41.33 41.33-41.33h676.98c22.74 0 41.34 18.61 41.34 41.33 0 22.73-18.61 41.34-41.34 41.34H832.62c-22.72 0-41.33-18.6-41.33-41.34z"/><path fill="#5da5e7" d="M1499.24 1530.12c0-22.73 18.6-41.33 41.33-41.33h558.99c22.73 0 41.33 18.6 41.33 41.33 0 22.73-18.61 41.34-41.33 41.34h-558.99c-22.72 0-41.33-18.6-41.33-41.34zm0-129.14c0-22.73 18.6-41.33 41.33-41.33h558.99c22.73 0 41.33 18.61 41.33 41.33 0 22.73-18.61 41.34-41.33 41.34h-558.99c-22.72 0-41.33-18.6-41.33-41.34z"/><path d="M881.78 1117.46c0 142.12 43.61 379.27 431.72 453.71 405.74 77.83 450.73 163.67 450.73 248.51 0 84.83-53.94 171.9-296.72 171.9-216.12 0-262.4-73.03-290.19-133.2-23.92-51.76-49.02-45.78-84.43-45.78H905.58c-40.38 0-73.43 29-57.1 88.59 30.87 112.66 117.8 365.12 635.68 365.12 240.05 0 608.9-90.43 608.9-462.04 0-127.03-14.18-390.96-492.35-476.11-305.97-54.48-391.27-119.97-391.27-227.35 0-83.74 73.52-154.01 253.91-154.01 194.16 0 224.24 76.06 244.96 112.39 18.5 32.44 46.99 45.79 70.76 45.79h189.12c61.66 0 78.73-43.3 67.78-91.58-36.5-160.88-183.79-341.32-564.3-341.32-365.99 0-589.89 173.45-589.89 445.38z" class="fil0"/><path fill="#2a5cf6" d="M945.46 1359.65c18.41 28.73 41.98 56.67 72.02 82.67h897.13c-46.96-31.5-106.3-59.8-181.14-82.67H945.46zm136.73 129.14c58.69 34.95 134.22 63.76 231.31 82.38l1.45.29h724.5c-16.52-28.13-38.11-56.05-66.32-82.67h-890.94z"/></g></svg>