<svg width="24" height="24" fill="none" xmlns="http://www.w3.org/2000/svg"><g clip-path="url(#a)"><mask id="b" style="mask-type:alpha" maskUnits="userSpaceOnUse" x="0" y="0" width="24" height="24"><path d="M12 0C5.373 0 0 5.372 0 12c0 6.627 5.373 12 12 12s12-5.373 12-12c0-6.628-5.373-12-12-12z" fill="#4EAF94"/></mask><g mask="url(#b)"><path fill-rule="evenodd" clip-rule="evenodd" d="M12 24c6.627 0 12-5.373 12-12S18.627 0 12 0 0 5.373 0 12s5.373 12 12 12z" fill="#fff"/><path fill-rule="evenodd" clip-rule="evenodd" d="M12.084 20.307a.464.464 0 0 1-.173-.034l-5.57-2.236a.46.46 0 0 1-.254-.249l-2.358-5.52a.461.461 0 0 1-.004-.357l2.237-5.57a.462.462 0 0 1 .248-.255l5.521-2.357a.465.465 0 0 1 .356-.004l5.57 2.236a.462.462 0 0 1 .255.25l2.357 5.52c.049.113.05.24.004.355l-2.236 5.571a.458.458 0 0 1-.25.254l-5.52 2.358a.456.456 0 0 1-.183.038zm-5.219-3.06 5.213 2.093 5.167-2.207 2.093-5.213-2.206-5.167-5.214-2.093-5.167 2.207-2.093 5.213 2.207 5.167zm4.101-2.876 2.233-2.459-2.182-2.284h3.468v-1.06h-4.96v1.06l2.202 2.294-2.211 2.45v1.059h4.969v-1.06h-3.519z" fill="#000"/><path opacity=".7" fill="#000" d="M-3 14h29v7H-3z"/><path d="M10.022 20H9.79v-.454h-.233v-.455h-.232v-.455h-.233v-.454H8.86v-.455h-.233v-.454h-.232v.454h-.233v.455H7.93v.454h-.233v.455h-.232v.454h-.233V20H7v-5h.697v2.5h.233v-.454h.232v-.455h.233v-.455h.232v.455h.233v.454h.232v.455h.233V15h.697v5zM13.511 20h-.697v-.682h-.233v-.682h-.232v-.454h-.233v-.227h-.232v.227h-.233v.454h-.232v.682h-.233V20h-.697v-.682h.232v-.682h.233v-.454h.232v-.455h.233v-.454h-.233v-.455h-.232v-.454h-.233v-.682h-.232V15h.697v.682h.233v.682h.232v.454h.233v.227h.232v-.227h.233v-.454h.232v-.682h.233V15h.697v.682h-.232v.682h-.233v.454h-.232v.455h-.233v.454h.233v.455h.232v.454h.233v.682h.232V20zM17 19.546h-.233v.227h-.232V20h-1.627v-.227h-.233v-.227h-.232v-.228h-.233v-.227h-.232v-3.182h.232v-.227h.233v-.228h.232v-.227h.233V15h1.627v.227h.232v.227H17v.455h-.698v-.227H15.14v.227h-.232v.227h-.233v2.728h.233v.227h.232v.227h1.162v-1.364h-.232v.228h-.697v-.91H17v2.274z" fill="#fff"/></g></g><defs><clipPath id="a"><rect width="24" height="24" rx="12" fill="#fff"/></clipPath></defs></svg>