<svg xmlns="http://www.w3.org/2000/svg" width="24" height="24" fill="none"><g clip-path="url(#a)"><mask id="b" width="24" height="24" x="0" y="0" maskUnits="userSpaceOnUse" style="mask-type:alpha"><path fill="#4EAF94" d="M12 0C5.373 0 0 5.372 0 12c0 6.627 5.373 12 12 12s12-5.373 12-12c0-6.628-5.373-12-12-12Z"/></mask><g mask="url(#b)"><path fill="#F0B90B" d="M5.423 12 2.71 14.71 0 12l2.71-2.71L5.423 12ZM12 5.419l4.645 4.647 2.71-2.71L12 0 4.645 7.355l2.71 2.71L12 5.42Zm9.292 3.87L18.582 12l2.71 2.71L24 12l-2.708-2.71ZM12 18.582l-4.645-4.644-2.71 2.708L12 24l7.355-7.355-2.71-2.708L12 18.58Zm0-3.87L14.71 12 12 9.29 9.29 12 12 14.71Z"/><path fill="#000" d="M-3 14h29v7H-3z" opacity=".7"/><path fill="#fff" d="M10.003 19.37h-.21v.21h-.21v.21h-.21V20h-2.1v-4.62h2.1v.21h.21v.21h.21v.21h.21v1.05h-.21v.21h-.21v.21h-.21v.21h.21v.21h.21v.21h.21v1.26Zm-.63-2.52v-.63h-.21v-.21h-1.26v1.26h1.05v-.21h.21v-.21h.21Zm0 2.31v-.84h-.21v-.21h-.21v-.21h-1.05v1.47h1.26v-.21h.21ZM13.154 19.37h-.21v.21h-.21v.21h-.21V20h-1.47v-.21h-.21v-.21h-.21v-.21h-.21v-.63h.63v.42h.21v.21h1.05v-.21h.21v-1.05h-.21v-.21h-1.26v-.21h-.21v-.21h-.21v-.21h-.21v-1.26h.21v-.21h.21v-.21h.21v-.21h1.47v.21h.21v.21h.21v.21h.21v.63h-.63v-.42h-.21v-.21h-1.05v.21h-.21v.84h.21v.21h1.26v.21h.21v.21h.21v.21h.21v1.47ZM16.306 19.37h-.21v.21h-.21v.21h-.21V20h-1.26v-.21h-.21v-.21h-.21v-.21h-.21v-.21h-.21v-2.94h.21v-.21h.21v-.21h.21v-.21h.21v-.21h1.26v.21h.21v.21h.21v.21h.21v.63h-.63v-.42h-.21v-.21h-.84v.21h-.21v.21h-.21v2.52h.21v.21h.21v.21h.84v-.21h.21v-.42h.63v.63Z"/></g></g><defs><clipPath id="a"><rect width="24" height="24" fill="#fff" rx="12"/></clipPath></defs></svg>