<svg width="68" height="68" viewBox="0 0 68 68" fill="none" xmlns="http://www.w3.org/2000/svg"><rect x="0.101562" y="0.522461" width="67.457" height="67.457" rx="33.7285" fill="black"/><path d="M16.7207 49.622H36.835V44.1762H22.957V36.798H33.263V31.6157H22.957H16.7207V49.622Z" fill="white"/><path d="M36.7471 18.8796H16.7207V24.3254H22.957H36.7471V18.8796Z" fill="white"/><path d="M40.1006 42.2507V40.5085L42.5364 38.0082C42.9988 37.5351 43.3967 37.121 43.7301 36.7661C44.0634 36.4005 44.3162 36.0564 44.4882 35.7338C44.671 35.4111 44.7625 35.067 44.7625 34.7014C44.7625 34.1637 44.6119 33.8034 44.3108 33.6206C44.0097 33.427 43.5257 33.3302 42.859 33.3302C42.5901 33.3302 42.2944 33.3464 41.9718 33.3786C41.6492 33.4109 41.3373 33.4485 41.0362 33.4915C40.7458 33.5346 40.4931 33.5776 40.278 33.6206L40.1651 31.9107C40.4017 31.8462 40.6921 31.7763 41.0362 31.701C41.3911 31.6257 41.7728 31.5612 42.1815 31.5074C42.6009 31.4429 43.0095 31.4106 43.4074 31.4106C44.5689 31.4106 45.4561 31.658 46.0691 32.1527C46.682 32.6366 46.9885 33.3894 46.9885 34.411C46.9885 34.9702 46.9079 35.4649 46.7466 35.8951C46.596 36.3252 46.354 36.7393 46.0207 37.1372C45.698 37.5243 45.2679 37.9491 44.7302 38.4115L42.6009 40.444H47.1337V42.2507H40.1006Z" fill="white"/><path d="M48.1899 42.2507V39.8633H50.4322V42.2507H48.1899Z" fill="white"/><path d="M54.9811 42.4281C54.2929 42.4281 53.696 42.3367 53.1906 42.1539C52.6851 41.9603 52.2657 41.6538 51.9324 41.2344C51.6097 40.8043 51.3624 40.2451 51.1903 39.5568C51.029 38.8686 50.9484 38.0244 50.9484 37.0242C50.9484 35.9919 51.029 35.1154 51.1903 34.3949C51.3624 33.6744 51.6151 33.099 51.9485 32.6689C52.2819 32.2279 52.6959 31.9107 53.1906 31.7171C53.696 31.5236 54.2875 31.4268 54.965 31.4268C55.664 31.4268 56.2662 31.5236 56.7717 31.7171C57.2771 31.9107 57.6911 32.2279 58.0138 32.6689C58.3471 33.099 58.5891 33.6744 58.7397 34.3949C58.901 35.1046 58.9816 35.9811 58.9816 37.0242C58.9816 38.347 58.8364 39.4063 58.5461 40.2021C58.2665 40.9871 57.8309 41.5571 57.2395 41.9119C56.648 42.2561 55.8952 42.4281 54.9811 42.4281ZM54.9811 40.5569C55.2822 40.5569 55.5403 40.5085 55.7554 40.4118C55.9813 40.3042 56.1694 40.1214 56.32 39.8633C56.4706 39.6052 56.5781 39.2449 56.6426 38.7825C56.7179 38.3201 56.7555 37.734 56.7555 37.0242C56.7555 36.2715 56.7179 35.6531 56.6426 35.1692C56.5781 34.6852 56.4759 34.3089 56.3361 34.04C56.1963 33.7604 56.0135 33.5668 55.7877 33.4593C55.5618 33.341 55.293 33.2818 54.9811 33.2818C54.6693 33.2818 54.4004 33.341 54.1746 33.4593C53.9487 33.5668 53.7606 33.755 53.61 34.0239C53.4702 34.2927 53.3627 34.6745 53.2874 35.1692C53.2121 35.6531 53.1745 36.2768 53.1745 37.0404C53.1745 37.7501 53.2121 38.3362 53.2874 38.7987C53.3734 39.2611 53.4917 39.6213 53.6423 39.8794C53.7928 40.1268 53.9756 40.3042 54.1907 40.4118C54.4165 40.5085 54.68 40.5569 54.9811 40.5569Z" fill="white"/></svg>