<svg style="enable-background:new 0 0 512 512;" version="1.1" viewBox="0 0 512 512" xml:space="preserve" xmlns="http://www.w3.org/2000/svg" xmlns:xlink="http://www.w3.org/1999/xlink"><g id="Pickaxe"><g id="XMLID_2403_"><g id="XMLID_4444_"><g id="XMLID_2402_"><g id="XMLID_4130_"><polygon id="XMLID_5133_" points="346.361,100.589 409.871,164.109 393.991,179.989 362.241,211.749        346.361,227.629 330.481,211.749 298.721,179.989 282.841,164.109 298.721,148.229 330.481,116.469      " style="fill:#C3E3F7;"/></g><g id="XMLID_4129_"><polygon id="XMLID_5131_" points="245.461,301.399 175.911,374.749 175.661,374.509 135.961,334.809        135.721,334.549 209.061,264.999      " style="fill:#C3E3F7;"/></g></g><g id="XMLID_2395_"><g id="XMLID_2401_"><path d="M346.361,237.628c-2.56,0-5.118-0.976-7.071-2.929l-15.88-15.88       c-3.905-3.905-3.905-10.237,0-14.143c3.906-3.904,10.236-3.904,14.143,0l8.809,8.809l49.368-49.378l-49.368-49.377       l-49.379,49.377l8.81,8.81c3.905,3.905,3.905,10.237,0,14.142c-3.906,3.905-10.236,3.906-14.143,0l-15.88-15.88       c-3.905-3.905-3.905-10.237,0-14.142l63.521-63.52c1.875-1.875,4.419-2.929,7.071-2.929l0,0c2.652,0,5.196,1.054,7.071,2.93       l63.51,63.52c3.905,3.905,3.905,10.236,0,14.141l-63.51,63.521C351.48,236.652,348.921,237.628,346.361,237.628z" id="XMLID_4917_" style="fill:#0096FF;"/></g><g id="XMLID_2400_"><path d="M298.721,158.229c-2.56,0-5.118-0.976-7.071-2.929L206.66,70.31       c-15.303-15.304-35.648-23.731-57.289-23.731h-9.94c-4.305,0-8.127-2.755-9.487-6.839c-1.36-4.084,0.045-8.581,3.489-11.163       l11.82-8.86C161.522,7.514,181.661,1.59,201.946,3.027c20.289,1.442,39.387,10.156,53.774,24.539l81.832,81.831       c3.905,3.905,3.905,10.237,0,14.143c-3.906,3.905-10.236,3.905-14.143,0l-81.83-81.83       c-19.17-19.163-48.225-23.907-72.177-13.157c19.346,3.872,37.131,13.346,51.399,27.615l84.989,84.99       c3.905,3.905,3.905,10.237,0,14.142C303.839,157.252,301.28,158.229,298.721,158.229z" id="XMLID_4916_" style="fill:#0096FF;"/></g><g id="XMLID_2399_"><path d="M476.949,384.099c-1.055,0-2.121-0.168-3.161-0.515       c-4.083-1.361-6.837-5.183-6.837-9.486v-9.939c0-21.632-8.425-41.975-23.724-57.281L355.17,218.82       c-3.905-3.905-3.905-10.237,0-14.143c3.906-3.905,10.236-3.905,14.143,0l88.06,88.06       c14.263,14.271,23.734,32.055,27.605,51.395c10.744-23.956,6.004-53.01-13.158-72.172L386.92,187.06       c-3.905-3.905-3.905-10.237,0-14.143c3.906-3.905,10.236-3.905,14.143,0l84.899,84.899       c14.383,14.384,23.099,33.479,24.54,53.77s-4.486,40.427-16.691,56.702l-8.86,11.811       C483.025,382.666,480.037,384.098,476.949,384.099z" id="XMLID_4915_" style="fill:#0096FF;"/></g><g id="XMLID_2398_"><path d="M43.879,509.184c-11.38,0-22.049-4.418-30.111-12.487       c-8.23-8.229-12.662-19.173-12.477-30.812c0.186-11.641,4.965-22.44,13.457-30.409L291.84,172.732       c3.935-3.728,10.121-3.646,13.952,0.186l31.761,31.76c3.832,3.833,3.914,10.02,0.185,13.953l-85.02,89.65l-69.549,73.35l0,0       l-108.22,114.13c-7.926,8.453-18.724,13.234-30.368,13.42C44.347,509.182,44.112,509.184,43.879,509.184z M298.535,193.945       l-82.595,78.311L28.472,450.025c-4.548,4.267-7.085,10-7.184,16.179c-0.098,6.177,2.254,11.984,6.624,16.354       c4.367,4.371,10.194,6.753,16.35,6.624c6.179-0.099,11.908-2.635,16.135-7.143l177.808-187.521l78.32-82.584L298.535,193.945z" id="XMLID_4912_" style="fill:#0096FF;"/></g><g id="XMLID_2397_"><path d="M245.477,311.444c-2.542,0-5.082-0.969-7.027-2.914l-36.46-36.46       c-3.905-3.905-3.935-10.267-0.029-14.172c3.904-3.906,10.206-3.935,14.112-0.03l36.46,36.46       c3.905,3.905,3.935,10.267,0.029,14.172C250.602,310.459,248.038,311.444,245.477,311.444z" id="XMLID_4911_" style="fill:#0096FF;"/></g><g id="XMLID_2396_"><path d="M175.661,384.508c-2.56,0-5.118-0.977-7.071-2.929l-39.7-39.7       c-3.905-3.905-3.905-10.237,0-14.143c3.906-3.904,10.236-3.904,14.143,0l39.7,39.7c3.905,3.905,3.905,10.237,0,14.143       C180.779,383.532,178.221,384.508,175.661,384.508z" id="XMLID_4910_" style="fill:#0096FF;"/></g></g></g></g></g><g id="Layer_1"/></svg>