<svg xmlns="http://www.w3.org/2000/svg" xml:space="preserve" width="50mm" height="50mm" style="shape-rendering:geometricPrecision;text-rendering:geometricPrecision;image-rendering:optimizeQuality;fill-rule:evenodd;clip-rule:evenodd" viewBox="0 0 47.438 47.438"><defs><style>.fil1{fill:#fff}</style></defs><g id="Слой_x0020_1"><path d="M23.72 0c13.097 0 23.718 10.622 23.718 23.72 0 13.097-10.621 23.718-23.719 23.718C10.622 47.438 0 36.817 0 23.72 0 10.622 10.622 0 23.72 0z" style="fill:#54963c"/><g id="_131161008"><path id="_131904744" class="fil1" d="m23.611 5.908 2.934 5.08c-.843.325-1.63.761-2.342 1.293l-.592-1.025-2.258 3.912-.12.207-6.582 11.4a6.645 6.645 0 0 1-2.218-1.506l3.358-5.816 3.029-5.247 1.626-2.817 3.165-5.481zm8.327 19.77 2.02 3.498.662 1.149h-1.27a9.879 9.879 0 0 1-.015 2.674h5.917l-7.82-13.546-3.277-5.676a6.62 6.62 0 0 0-2.356 1.27l6.139 10.632zm-18.876 3.85-.46.797h17.554a6.663 6.663 0 0 1-.022 2.674H7.97l2.841-4.922a9.807 9.807 0 0 0 2.25 1.45z"/><path id="_131159520" class="fil1" d="M17.187 11.31c.89 0 1.753.125 2.569.358l-1.169 2.024a7.092 7.092 0 0 0-3.52 13.721c.928.29 1.694.303 2.652.303l-.02.025c-.419.585-.716 1.35-.903 2.033v.003l-.001.003v.002l-.002.003v.003l-.001.002v.003l-.001.002-.001.002v.003l-.001.002v.002l-.001.003-.001.002v.002l-.001.002v.002l-.001.003v.002l-.001.002v.001l-.001.001v.003l-.001.002v.002l-.001.002v.001l-.001.002v.002l-.001.001v.003l-.001.002v.002l-.001.001v.003l-.001.001v.002l-.001.002v.002l-.001.001v.004h-.001v.004H14.475c.017-.09.036-.181.055-.27-3.86-1.145-6.678-4.72-6.678-8.951 0-5.155 4.18-9.335 9.334-9.335zm13.452 19.11a7.08 7.08 0 0 1 .09.813l.001.018.007.17v.006c.017.699-.087 1.35-.232 2.03h-.01a7.095 7.095 0 0 1-6.847 5.242 7.095 7.095 0 0 1-6.847-5.242h-2.304c.859 4.269 4.63 7.485 9.15 7.485 4.669 0 8.538-3.429 9.226-7.905l.014-.094.008-.058a9.42 9.42 0 0 0-.253-3.782c.197-.057.427-.107.64-.178l-1.152-2-.12.038c-.92.26-1.854.3-2.83.207l.009.013c.754.98 1.245 2.025 1.45 3.236zm5.672-3.356.16-.153a9.306 9.306 0 0 0 2.919-6.778c0-5.155-4.18-9.335-9.334-9.335a9.306 9.306 0 0 0-6.703 2.84 9.414 9.414 0 0 0-.396-.331l-1.137 1.97c.058.05.115.1.172.153l-.003.004c.511.486 1.218 1.287 1.508 1.97a.24.24 0 0 1 .006.013 7.898 7.898 0 0 1 1.329-2.08h.001v-.001h.001v-.001h.001v-.001l.001-.001h.001v-.001l.001-.001.001-.001.001-.001.001-.001v-.001h.001v-.001h.001v-.001l.001-.001h.001v-.001l.001-.001.001-.001.001-.001v-.001h.001v-.001h.001v-.001h.001v-.001h.001a7.092 7.092 0 1 1 10.345 9.699c-.01.01-.015.013-.044.038l1.158 2.01z"/></g><path class="fil1" d="M23.72 2.344c11.803 0 21.375 9.572 21.375 21.375 0 11.804-9.572 21.376-21.376 21.376-11.803 0-21.375-9.572-21.375-21.376 0-11.803 9.572-21.375 21.375-21.375zm0 1.904c10.751 0 19.47 8.72 19.47 19.471 0 10.752-8.719 19.471-19.47 19.471-10.753 0-19.472-8.719-19.472-19.47 0-10.753 8.72-19.472 19.471-19.472z"/></g></svg>