<svg width="36" height="36" fill="none" xmlns="http://www.w3.org/2000/svg"><g clip-path="url(#a)"><mask id="b" style="mask-type:alpha" maskUnits="userSpaceOnUse" x="0" y="0" width="36" height="36"><path d="M18 0C8.06 0 0 8.059 0 18c0 9.94 8.06 18 18 18 9.941 0 18-8.06 18-18 0-9.941-8.06-18-18-18z" fill="#4EAF94"/></mask><g mask="url(#b)"><path d="m17.946 0 4.447 4.554L11.196 15.75 6.75 11.304 17.946 0zM24.696 6.75l4.447 4.554L11.196 29.25 6.75 24.804 24.696 6.75zM4.446 13.5l4.447 4.554L4.446 22.5 0 18.054 4.446 13.5zM31.446 13.5l4.447 4.554L17.946 36 13.5 31.554 31.446 13.5z" fill="#F0B90B"/><path opacity=".7" fill="#000" d="M-4 19.5h43.909V30H-4z"/><path d="M15.717 28.5h-.352v-.682h-.352v-.682h-.352v-.681h-.352v-.682h-.352v-.682h-.352v-.682h-.352v.682h-.352v.682h-.352v.681h-.352v.682h-.352v.682h-.352v.682h-.352V21h1.056v3.75h.352v-.682h.352v-.682h.352v-.681h.352v.681h.352v.682h.352v.682h.352V21h1.056v7.5zM21 28.5h-1.056v-1.023h-.352v-1.023h-.352v-.681h-.352v-.341h-.352v.34h-.352v.683h-.352v1.022h-.352V28.5h-1.056v-1.023h.352v-1.023h.352v-.681h.352v-.682h.352v-.682h-.352v-.682h-.352v-.681h-.352v-1.023h-.352V21h1.056v1.023h.352v1.023h.352v.681h.352v.341h.352v-.34h.352v-.683h.352v-1.022h.352V21H21v1.023h-.352v1.023h-.352v.681h-.352v.682h-.352v.682h.352v.682h.352v.681h.352v1.023H21V28.5zM26.282 27.818h-.352v.341h-.352v.341h-2.464v-.34h-.352v-.342h-.352v-.34h-.352v-.342h-.352v-4.772h.352v-.341h.352v-.341h.352v-.341h.352V21h2.464v.34h.352v.342h.352v.682h-1.056v-.341h-1.76v.34h-.352v.341h-.352v4.091h.352v.341h.352v.341h1.76v-2.045h-.352v.34h-1.056V24.41h2.464v3.41z" fill="#fff"/></g></g><defs><clipPath id="a"><rect width="36" height="36" rx="18" fill="#fff"/></clipPath></defs></svg>