<svg width="24" height="24" viewBox="0 0 24 24" fill="none" xmlns="http://www.w3.org/2000/svg">
<g clip-path="url(#clip0_2410_42757)">
<mask id="mask0_2410_42757" style="mask-type:luminance" maskUnits="userSpaceOnUse" x="0" y="0" width="24" height="24">
<path d="M0 0H24V24H0V0Z" fill="white"/>
</mask>
<g mask="url(#mask0_2410_42757)">
<path d="M23.8578 11.8222C23.8578 5.19483 18.4852 -0.17778 11.8578 -0.17778C5.2304 -0.17778 -0.142212 5.19483 -0.142212 11.8222C-0.142212 18.4496 5.2304 23.8222 11.8578 23.8222C18.4852 23.8222 23.8578 18.4496 23.8578 11.8222Z" fill="url(#paint0_linear_2410_42757)"/>
<path fill-rule="evenodd" clip-rule="evenodd" d="M12 7.79998C11.1693 7.80005 10.3573 8.0464 9.66668 8.50789C8.97602 8.96938 8.43769 9.62529 8.11976 10.3927C7.90868 10.9023 7.80003 11.4484 7.8 12H6C6.00007 10.3431 6.67161 8.84314 7.75741 7.75733C8.84315 6.67153 10.3432 5.99998 12 5.99998V7.79998ZM12 12C10.3432 12 8.84322 12.6717 7.75748 13.7574C6.67167 14.8432 6.00007 16.3431 6 18H7.8C7.8 16.8402 8.27009 15.7902 9.03013 15.0301C9.79017 14.2701 10.8402 13.8 12 13.8V12ZM15.8803 7.60727C16.0913 7.09768 16.1999 6.55153 16.2 5.99998H18C18.0001 6.78793 17.8449 7.56816 17.5433 8.29609C17.2418 9.02405 16.7998 9.68549 16.2426 10.2426C15.6855 10.7998 15.024 11.2417 14.296 11.5432C13.5681 11.8448 12.7879 12 12 12V10.2C12.8307 10.2002 13.6428 9.95379 14.3333 9.49205C15.0242 9.03076 15.5626 8.3748 15.8803 7.60727Z" fill="white"/>
<path fill-rule="evenodd" clip-rule="evenodd" d="M11.8096 6.19352C10.281 6.24274 8.90185 6.88226 7.89215 7.89202L7.89215 7.89202C6.88238 8.90178 6.24287 10.2809 6.19359 11.8095H7.61371C7.63595 11.298 7.74751 10.7938 7.94383 10.3198L7.94384 10.3198C8.27618 9.51759 8.83892 8.83193 9.56091 8.34952C10.23 7.90243 11.008 7.64851 11.8096 7.61365V6.19352ZM7.62277 7.62265C8.74277 6.50258 10.2907 5.80951 12 5.80951C12.1052 5.80951 12.1905 5.89479 12.1905 5.99999V7.79999C12.1905 7.90518 12.1053 7.99045 12.0001 7.99046C11.2071 7.99052 10.4319 8.2257 9.77255 8.66626C9.11321 9.10683 8.5993 9.73299 8.29578 10.4656C8.09427 10.9521 7.99055 11.4734 7.99052 12C7.99052 12.1052 7.90524 12.1905 7.80005 12.1905H6.00005C5.94953 12.1905 5.90108 12.1704 5.86536 12.1347C5.82964 12.0989 5.80957 12.0505 5.80957 12C5.80964 10.2906 6.5027 8.74272 7.62277 7.62265ZM16.0096 5.99997C16.0096 5.89478 16.0949 5.80951 16.2 5.80951H18C18.1052 5.80951 18.1905 5.89478 18.1905 5.99997C18.1906 6.81293 18.0305 7.61795 17.7193 8.369C17.4082 9.12007 16.9522 9.8025 16.3774 10.3773C15.8025 10.9522 15.1201 11.4081 14.369 11.7192C13.6767 12.006 12.9385 12.1645 12.1905 12.1875V13.8C12.1905 13.9052 12.1052 13.9905 12 13.9905C10.8928 13.9905 9.89065 14.439 9.16486 15.1648C8.43908 15.8906 7.99052 16.8927 7.99052 18C7.99052 18.1052 7.90524 18.1905 7.80005 18.1905H6.00005C5.94953 18.1905 5.90108 18.1704 5.86536 18.1347C5.82964 18.0989 5.80957 18.0505 5.80957 18C5.80964 16.2906 6.50278 14.7428 7.62284 13.6227C8.70109 12.5445 10.1758 11.8618 11.8096 11.8124V10.2C11.8096 10.1495 11.8296 10.101 11.8654 10.0653C11.9011 10.0296 11.9496 10.0095 12.0001 10.0095C12.7931 10.0097 13.5683 9.77449 14.2275 9.33371L14.2276 9.33364C14.8871 8.8933 15.4011 8.26711 15.7044 7.53442L15.7044 7.53439C15.9058 7.04791 16.0095 6.52652 16.0096 5.99997ZM12.1905 11.8064C12.8885 11.7835 13.5771 11.6349 14.2232 11.3672L14.2232 11.3672C14.9281 11.0753 15.5685 10.6474 16.108 10.1079C16.6475 9.56849 17.0754 8.92805 17.3674 8.22321L17.3674 8.22319C17.6351 7.57708 17.7836 6.88842 17.8065 6.19046H16.3864C16.3641 6.70198 16.2526 7.20619 16.0563 7.68014C15.7242 8.48251 15.1614 9.16824 14.4392 9.65046C13.7702 10.0978 12.9921 10.3517 12.1905 10.3864V11.8064ZM11.8096 12.1935C10.281 12.2428 8.90192 12.8824 7.89221 13.8921C6.88244 14.9019 6.24288 16.2809 6.19359 17.8095H7.61363C7.66217 16.6729 8.143 15.6479 8.89549 14.8954C9.64799 14.1429 10.6729 13.6621 11.8096 13.6136V12.1935Z" fill="black"/>
<path d="M17.8254 23.7975C21.1391 23.7975 23.8254 21.1112 23.8254 17.7975C23.8254 14.4838 21.1391 11.7975 17.8254 11.7975C14.5117 11.7975 11.8254 14.4838 11.8254 17.7975C11.8254 21.1112 14.5117 23.7975 17.8254 23.7975Z" fill="#7EE989"/>
<path fill-rule="evenodd" clip-rule="evenodd" d="M11.635 17.7975C11.635 14.3786 14.4066 11.607 17.8255 11.607C21.2444 11.607 24.016 14.3786 24.016 17.7975C24.016 21.2164 21.2444 23.9879 17.8255 23.9879C14.4066 23.9879 11.635 21.2164 11.635 17.7975ZM17.8255 11.9879C14.617 11.9879 12.016 14.589 12.016 17.7975C12.016 21.006 14.617 23.607 17.8255 23.607C21.034 23.607 23.635 21.006 23.635 17.7975C23.635 14.589 21.034 11.9879 17.8255 11.9879Z" fill="black"/>
<path d="M21.9526 20.4206C21.0927 21.7876 19.5708 22.6957 17.837 22.6957C15.1535 22.6957 12.9783 20.5204 12.9783 17.837C12.9783 17.7452 12.9808 17.654 12.9858 17.5636H14.7781V18.0873H13.562L13.5704 18.1903C13.7501 20.3894 15.5916 22.118 17.837 22.118C19.2309 22.118 20.4692 21.4516 21.2507 20.4206H21.9526ZM22.0067 17.5636H22.1106L22.1016 17.4601C21.9106 15.2722 20.0742 13.556 17.837 13.556C16.3586 13.556 15.0553 14.3054 14.2863 15.4447H13.607C14.4419 13.9719 16.0235 12.9783 17.837 12.9783C20.5204 12.9783 22.6957 15.1535 22.6957 17.837C22.6957 17.9205 22.6936 18.0039 22.6893 18.0873H21.0358V17.5636H22.0067ZM17.7613 19.314L17.8512 19.5581L17.9402 19.3138L19.1869 15.893H19.9488L18.227 20.2321H17.4677L15.7396 15.893H16.5015L17.7613 19.314Z" fill="#2E3A59" fill-opacity="0.04"/>
<path fill-rule="evenodd" clip-rule="evenodd" d="M13.8015 15.334H14.228C15.0207 14.193 16.3415 13.4453 17.8369 13.4453C20.1321 13.4453 22.0159 15.2059 22.2118 17.4505L22.2313 17.6743H21.1465V17.9766H22.5829C22.5843 17.9301 22.585 17.8836 22.5849 17.837C22.5849 15.2147 20.4592 13.089 17.8369 13.089C16.1336 13.089 14.6395 13.9859 13.8015 15.334ZM13.5107 15.3901C14.3644 13.884 15.982 12.8676 17.8369 12.8676C20.5815 12.8676 22.8063 15.0924 22.8063 17.837C22.8064 17.9224 22.8042 18.0077 22.7998 18.093L22.7944 18.198H20.9251V17.453H21.9898C21.7959 15.3298 20.0106 13.6667 17.8369 13.6667C16.3969 13.6667 15.1273 14.3966 14.3781 15.5066L14.3451 15.5554H13.417L13.5107 15.3901ZM15.5764 15.7823H16.5787L17.8506 19.2363L19.1094 15.7823H20.1118L18.3021 20.3428H17.3926L15.5764 15.7823ZM15.9028 16.0037L17.5427 20.1215H18.1518L19.7857 16.0037H19.2643L18.0442 19.3516L17.8518 19.88L17.6574 19.3523L16.4243 16.0037H15.9028ZM12.881 17.453H14.8887V18.198H13.6821C13.8651 20.3322 15.6554 22.0073 17.8369 22.0073C19.1947 22.0073 20.401 21.3584 21.1625 20.3537L21.1957 20.3099H22.1529L22.0462 20.4795C21.1669 21.8774 19.6104 22.8064 17.8369 22.8064C15.0924 22.8064 12.8676 20.5815 12.8676 17.837C12.8676 17.7432 12.8702 17.65 12.8752 17.5576L12.881 17.453ZM13.0917 17.6743C13.0899 17.7283 13.0889 17.7825 13.0889 17.837C13.0889 20.4593 15.2146 22.585 17.8369 22.585C19.4584 22.585 20.8903 21.7723 21.747 20.5312H21.3052C20.5021 21.5638 19.2471 22.2287 17.8369 22.2287C15.5335 22.2287 13.6444 20.4554 13.46 18.1993L13.4418 17.9766H14.6674V17.6743H13.0917Z" fill="black"/>
</g>
</g>
<defs>
<linearGradient id="paint0_linear_2410_42757" x1="3.42453" y1="3.12222" x2="20.3912" y2="20.0889" gradientUnits="userSpaceOnUse">
<stop stop-color="#4EBEA0"/>
<stop offset="0.965" stop-color="#7EE989"/>
</linearGradient>
<clipPath id="clip0_2410_42757">
<rect width="24" height="24" fill="white"/>
</clipPath>
</defs>
</svg>
