<svg width="24" height="24" viewBox="0 0 24 24" fill="none" xmlns="http://www.w3.org/2000/svg">
<g clip-path="url(#clip0_2246_5433)">
<mask id="mask0_2246_5433" style="mask-type:alpha" maskUnits="userSpaceOnUse" x="0" y="0" width="24" height="24">
<path d="M12.0001 0C5.37271 0 0 5.37237 0 11.9999C0 18.6271 5.37271 24 12.0001 24C18.6274 24 24 18.6271 24 11.9999C24 5.37237 18.6273 0 12.0001 0Z" fill="#4EAF94"/>
</mask>
<g mask="url(#mask0_2246_5433)">
</g>
<g clip-path="url(#clip1_2246_5433)">
<path d="M19.5691 5.03686L18.9102 5.69584C20.4826 7.4154 21.3546 9.66117 21.3546 11.9913C21.3546 14.3214 20.4826 16.5672 18.9102 18.2867L19.5691 18.9457C21.3178 17.0489 22.2887 14.5635 22.2887 11.9836C22.2887 9.4037 21.3178 6.91829 19.5691 5.02148V5.03686Z" fill="#5A5564"/>
<path d="M5.70951 5.0934C7.42908 3.52097 9.67484 2.64897 12.005 2.64897C14.3351 2.64897 16.5808 3.52097 18.3004 5.0934L18.9594 4.43442C17.0626 2.68571 14.5772 1.71484 11.9973 1.71484C9.41737 1.71484 6.93196 2.68571 5.03516 4.43442L5.70951 5.0934Z" fill="#5A5564"/>
<path d="M5.0934 18.2941C3.52283 16.5749 2.65198 14.3305 2.65198 12.0019C2.65198 9.67333 3.52283 7.42894 5.0934 5.70976L4.43442 5.05078C2.68571 6.94758 1.71484 9.433 1.71484 12.0129C1.71484 14.5928 2.68571 17.0782 4.43442 18.975L5.0934 18.2941Z" fill="#5A5564"/>
<path d="M18.2928 18.9023C16.5733 20.4748 14.3275 21.3468 11.9974 21.3468C9.66727 21.3468 7.42151 20.4748 5.70195 18.9023L5.04297 19.5613C6.93977 21.31 9.42519 22.2809 12.0051 22.2809C14.585 22.2809 17.0704 21.31 18.9672 19.5613L18.2928 18.9023Z" fill="#5A5564"/>
<path d="M16.1586 9.80204C16.0268 8.42697 14.8406 7.96569 13.3403 7.82511V5.93164H12.1805V7.78996C11.8752 7.78996 11.5633 7.78996 11.2536 7.78996V5.93164H10.1026V7.83829H7.75V9.07936C7.75 9.07936 8.60667 9.06399 8.59349 9.07936C8.74796 9.06237 8.90299 9.106 9.02591 9.20107C9.14884 9.29613 9.23007 9.4352 9.25247 9.58897V14.8081C9.24917 14.8623 9.23503 14.9153 9.21088 14.964C9.18674 15.0127 9.15307 15.056 9.11189 15.0914C9.07148 15.1276 9.02418 15.1551 8.97284 15.1725C8.92151 15.1898 8.86719 15.1967 8.81315 15.1925C8.82853 15.2057 7.96966 15.1925 7.96966 15.1925L7.75 16.5785H10.0806V18.5159H11.2404V16.6071H12.1674V18.5071H13.3294V16.5917C15.2887 16.4731 16.655 15.9899 16.8263 14.1557C16.9647 12.6796 16.2706 12.0206 15.1613 11.7548C15.8357 11.4231 16.253 10.8081 16.1586 9.80204ZM14.5331 13.9272C14.5331 15.3682 12.0641 15.2035 11.2777 15.2035V12.6466C12.0641 12.6488 14.5331 12.4226 14.5331 13.9272ZM13.9949 10.3248C13.9949 11.6428 11.9345 11.4824 11.2799 11.4824V9.15844C11.9345 9.15844 13.9949 8.95196 13.9949 10.3248Z" fill="#F09242"/>
<path d="M11.9978 24C9.62459 23.9995 7.30482 23.2954 5.33176 21.9767C3.35871 20.658 1.82098 18.7838 0.913 16.5912C0.00502087 14.3985 -0.232434 11.9859 0.230659 9.65835C0.693751 7.33079 1.8366 5.19279 3.51469 3.51469C5.19279 1.8366 7.33079 0.693751 9.65835 0.230659C11.9859 -0.232434 14.3985 0.00502087 16.5912 0.913C18.7838 1.82098 20.658 3.35871 21.9767 5.33176C23.2954 7.30482 23.9995 9.62459 24 11.9978C24.0003 13.574 23.69 15.1349 23.087 16.5912C22.4839 18.0475 21.5998 19.3707 20.4853 20.4853C19.3707 21.5998 18.0475 22.4839 16.5912 23.087C15.1349 23.69 13.574 24.0003 11.9978 24ZM11.9978 0.935724C9.81134 0.937462 7.6745 1.58735 5.85732 2.80324C4.04015 4.01913 2.62423 5.74645 1.78852 7.76687C0.952809 9.78729 0.734827 12.0101 1.16213 14.1544C1.58942 16.2987 2.64282 18.2681 4.18917 19.8139C5.73552 21.3596 7.70541 22.4122 9.84986 22.8387C11.9943 23.2651 14.217 23.0463 16.2371 22.2098C18.2572 21.3732 19.984 19.9566 21.1991 18.139C22.4143 16.3213 23.0634 14.1842 23.0642 11.9978C23.0648 10.5446 22.7789 9.10547 22.2229 7.76281C21.6669 6.42016 20.8517 5.20026 19.824 4.17288C18.7962 3.1455 17.576 2.33079 16.2331 1.77534C14.8902 1.21988 13.451 0.93457 11.9978 0.935724Z" fill="#282138"/>
</g>
<rect opacity="0.7" x="-3" y="14" width="29" height="7" fill="black"/>
<path d="M10.0223 20H9.78985V19.5455H9.55737V19.0909H9.32488V18.6364H9.09239V18.1818H8.8599V17.7273H8.62741V17.2727H8.39493V17.7273H8.16244V18.1818H7.92995V18.6364H7.69746V19.0909H7.46498V19.5455H7.23249V20H7V15H7.69746V17.5H7.92995V17.0455H8.16244V16.5909H8.39493V16.1364H8.62741V16.5909H8.8599V17.0455H9.09239V17.5H9.32488V15H10.0223V20Z" fill="white"/>
<path d="M13.5112 20H12.8137V19.3182H12.5812V18.6364H12.3487V18.1818H12.1162V17.9545H11.8838V18.1818H11.6513V18.6364H11.4188V19.3182H11.1863V20H10.4888V19.3182H10.7213V18.6364H10.9538V18.1818H11.1863V17.7273H11.4188V17.2727H11.1863V16.8182H10.9538V16.3636H10.7213V15.6818H10.4888V15H11.1863V15.6818H11.4188V16.3636H11.6513V16.8182H11.8838V17.0455H12.1162V16.8182H12.3487V16.3636H12.5812V15.6818H12.8137V15H13.5112V15.6818H13.2787V16.3636H13.0462V16.8182H12.8137V17.2727H12.5812V17.7273H12.8137V18.1818H13.0462V18.6364H13.2787V19.3182H13.5112V20Z" fill="white"/>
<path d="M17 19.5455H16.7675V19.7727H16.535V20H14.9076V19.7727H14.6751V19.5455H14.4426V19.3182H14.2101V19.0909H13.9777V15.9091H14.2101V15.6818H14.4426V15.4545H14.6751V15.2273H14.9076V15H16.535V15.2273H16.7675V15.4545H17V15.9091H16.3025V15.6818H15.1401V15.9091H14.9076V16.1364H14.6751V18.8636H14.9076V19.0909H15.1401V19.3182H16.3025V17.9545H16.07V18.1818H15.3726V17.2727H17V19.5455Z" fill="white"/>
</g>
<defs>
<clipPath id="clip0_2246_5433">
<rect width="24" height="24" rx="12" fill="white"/>
</clipPath>
<clipPath id="clip1_2246_5433">
<rect width="24" height="24" fill="white"/>
</clipPath>
</defs>
</svg>
