<svg width="937" height="938" viewBox="0 0 937 938" fill="none" xmlns="http://www.w3.org/2000/svg">
<g clip-path="url(#clip0_1_2)">
<path fill-rule="evenodd" clip-rule="evenodd" d="M449.22 311.03V1.5H0.390015V434.25H309.79C316.115 393.846 339.115 357.954 373.182 335.328C395.772 320.304 422.11 311.888 449.226 311.028L449.22 311.03Z" fill="black"/>
<path fill-rule="evenodd" clip-rule="evenodd" d="M597.88 434.25C591.046 387.734 561.925 347.488 519.88 326.45V1.50001H808.86C812.7 1.50001 926.91 -22.774 936.35 123.81V434.25H597.88Z" fill="#F919A5"/>
<path fill-rule="evenodd" clip-rule="evenodd" d="M0.388046 504.91V810.38C0.388046 814.018 -13.2169 937.66 120.688 937.66H449.218V601.93C388.895 600.69 335.748 561.956 316.098 504.91H0.388046Z" fill="black"/>
</g>
<defs>
<clipPath id="clip0_1_2">
<rect width="936.35" height="937.66" fill="white"/>
</clipPath>
</defs>
</svg>