<svg xmlns="http://www.w3.org/2000/svg" width="24" height="24" fill="none"><g clip-path="url(#a)"><mask id="b" width="24" height="24" x="0" y="0" maskUnits="userSpaceOnUse" style="mask-type:alpha"><path fill="#4EAF94" d="M12 0a12 12 0 1 0 0 24 12 12 0 0 0 0-24Z"/></mask><g mask="url(#b)"><path fill="#4EAF94" d="M12 0a12 12 0 1 0 0 24 12 12 0 0 0 0-24Z"/><path fill="#fff" fill-rule="evenodd" d="M13.3 18v-4.7c2.8-.1 5-.8 5-1.6s-2.2-1.5-5-1.7V8.7h3.5V6H7.1v2.7h3.5V10c-2.8.2-4.8.9-4.8 1.7 0 .8 2 1.5 4.8 1.6V18h2.7Zm0-6.1v-1.6c2.4.1 4.2.6 4.2 1 0 .7-2.4 1.2-5.5 1.2-3 0-5.5-.5-5.5-1.1 0-.5 1.7-1 4.1-1v1.5a23.6 23.6 0 0 0 2.7 0Z" clip-rule="evenodd"/><path fill="#000" d="M-3 14h29v7H-3z" opacity=".7"/><path fill="#fff" d="M6.2 19.3H6v.2h-.3v.3h-.2v.2H3v-5h2.5v.2h.2v.3H6v.2h.2v1.1H6v.2h-.3v.3h-.2v.2h.2v.2H6v.3h.2v1.3Zm-.7-2.7v-.7h-.3v-.2H3.7V17H5v-.2h.2v-.2h.3Zm0 2.5v-1h-.3V18H5v-.3H3.7v1.6h1.5v-.2h.3ZM9.9 20H6.7v-5h3.2v.7H7.4V17h2v.7h-2v1.6H10v.7ZM13.6 17.3h-.2v.2H13v.2H13v.3H11v2h-.7v-5h2.5v.2h.2v.3h.3v.2h.2v1.6Zm-.7-.3v-1h-.3v-.3h-1.5v1.6h1.5V17h.3ZM17.3 20h-3.2v-1.8h.2V18h.3v-.3h.2v-.2h.3v-.2h1V17h.2v-.2h.3V16h-.3v-.2h-1.2v.2h-.3v.5h-.7v-.7h.2v-.2h.3v-.3h.2V15h1.8v.2h.2v.3h.3v.2h.2V17h-.2v.3h-.3v.2h-.2v.2h-.3v.3h-1v.2h-.2v.2h-.3v1h2.5v.6ZM21 19h-.2v.3h-.3v.2h-.2v.3H20v.2h-1.2v-.2h-.3v-.3h-.2v-.2H18v-.2h-.2v-3.2h.2v-.2h.3v-.2h.2v-.3h.3V15H20v.2h.3v.3h.2v.2h.3v.2h.2v3.2Zm-1-2.9v-.4h-1.2v.2h-.3v2.5h.3V18h.2v-.5h.3V17h.2v-.4h.3V16h.2Zm.3 3v-2.3H20v.5h-.2v.4h-.3v.5h-.2v.4H19v.5h-.2v.2H20v-.2h.3Z"/></g></g><defs><clipPath id="a"><rect width="24" height="24" fill="#fff" rx="12"/></clipPath></defs></svg>