<svg xmlns="http://www.w3.org/2000/svg" id="Layer_1" data-name="Layer 1" viewBox="0 0 108.67 90"><defs><style>.cls-1{fill:#30f}</style></defs><path d="M1.51 54.37A58.94 58.94 0 0 1 18.33 42c8.51-4.13 17.39-6 26.83-4.33a31.66 31.66 0 0 1 17.2 8.82 60.36 60.36 0 0 1 6.76 8.79c1.63 2.33 3.24 4.68 5.06 6.86a20.78 20.78 0 0 0 17.39 7.91 31.14 31.14 0 0 0 14.84-4.63 2.11 2.11 0 0 0 .87-1.27c.45-2.32.83-4.65 1.16-7a32.06 32.06 0 0 0 .23-3.25c0-.67-.22-.8-.81-.49s-1 .56-1.53.79a41.17 41.17 0 0 1-21.49 2.87 19.48 19.48 0 0 1-8.21-2.69 19 19 0 0 1-6-6.58 49.8 49.8 0 0 0-10.92-13 33.63 33.63 0 0 0-21.74-8A60.16 60.16 0 0 0 16.14 31 39.66 39.66 0 0 0 2 40.5a8.54 8.54 0 0 0-.63.72l-.46.52s-1.5 7.64-.64 13.65c0 0 .25.12 1.24-1.02Z" class="cls-1"/><path d="M41.93 48.86a37.84 37.84 0 0 1 12.59 1.81 26.53 26.53 0 0 1 13.33 10.19 82.24 82.24 0 0 1 5.52 9.42 31.13 31.13 0 0 0 3.82 6 9.9 9.9 0 0 0 8.91 3.63 66.52 66.52 0 0 0 15.29-3.51c.33-.11 1-.33 1.21-.16s-.39 1.15-.58 1.49a24 24 0 0 1-7 7.37 24.91 24.91 0 0 1-10 4.66A14.44 14.44 0 0 1 81 90a8.19 8.19 0 0 1-6.64-4.46 15.61 15.61 0 0 1-1.6-4.06c-2.1-10.75-8.87-17.34-19.43-20A39.88 39.88 0 0 0 41 60.63 52.52 52.52 0 0 0 21.2 66 49.6 49.6 0 0 0 7.19 76c-.72.75-1.14.63-1.52-.3-1.18-2.85-2.29-5.77-3.47-8.7a2.86 2.86 0 0 1 .72-3.29 33.45 33.45 0 0 1 7.9-6.31 62.86 62.86 0 0 1 21-7.64 57.63 57.63 0 0 1 10.11-.9ZM8.17 28.17a63.61 63.61 0 0 1 13.1-6.92A39.54 39.54 0 0 1 39.16 19a40.7 40.7 0 0 1 23.57 11.16 46.21 46.21 0 0 1 8.13 10.38 5.8 5.8 0 0 0 4.09 3 63.86 63.86 0 0 0 9.75 1.23 75 75 0 0 0 13.48-.58c2.37-.31 4.74-.7 7.07-1.2 1.91-.4 2.29-1.1 1.94-3-.24-1.35-.44-2.71-.74-4.05a29.54 29.54 0 0 0-.92-3.31 1.71 1.71 0 0 0-1.91-1.14c-3.19.2-6.37.45-9.56.59-5.58.26-10.78.71-16.75.7a12.15 12.15 0 0 1-6.62-1.82A24.05 24.05 0 0 1 64 25.1a51.51 51.51 0 0 0-6-6.48 29.75 29.75 0 0 0-17.93-7.57 50.74 50.74 0 0 0-8.8.23A35.11 35.11 0 0 0 18 15.14C12.48 18.07 8 22 5.18 27.59a11.94 11.94 0 0 0-.56 1.27c-.21.56-.43 1.09-.69 1.91Z" class="cls-1"/><path d="M20 9.67c.5-.27 1-.5 1.59-.67a39.63 39.63 0 0 1 18.53-2.73 33 33 0 0 1 18.66 8.19c1.21 1 2.35 2.17 3.63 3.13 3.82 2.9 8.32 4.25 13 4.95C83 23.67 90.52 23 98 21.76a1.21 1.21 0 0 0 1.19-1.23 1.28 1.28 0 0 0-.28-.75 23.94 23.94 0 0 0-1.66-2.45 39.65 39.65 0 0 0-2.84-3.24A4.36 4.36 0 0 0 90.55 13a68.44 68.44 0 0 1-16.61.74 37.83 37.83 0 0 1-18.35-6.02 36.49 36.49 0 0 0-9.48-4.55 25.38 25.38 0 0 0-20 1.57 20.08 20.08 0 0 0-6.58 5.13ZM52.13 1a5.67 5.67 0 0 0 .76.52c1.24.74 2.51 1.42 3.79 2.17a23.17 23.17 0 0 0 9.83 3.22c2.55.23 5.15.45 7.73.59a96.78 96.78 0 0 0 13.3.1 10.48 10.48 0 0 0 2.14-.4c.63-.18.7-.54.22-1a13.77 13.77 0 0 0-1.85-1.27A24.51 24.51 0 0 0 75.74 1.5c-3.93-.16-7.85-.31-11.74-.56-3.53-.23-7-.57-10.58-.85h-.47c-.6-.09-2.26-.27-.82.91Z" class="cls-1"/></svg>