<svg xmlns="http://www.w3.org/2000/svg" width="200" height="200" fill="none"><g clip-path="url(#a)"><g opacity=".77"><path fill="#fff" d="M169.846 117.417c-9.617 38.572-48.689 62.046-87.27 52.427-38.564-9.616-62.04-48.685-52.42-87.254 9.614-38.576 48.685-62.052 87.254-52.436 38.578 9.617 62.053 48.69 52.435 87.264v-.001h.001Z"/><path fill="url(#b)" d="M169.846 117.417c-9.617 38.572-48.689 62.046-87.27 52.427-38.564-9.616-62.04-48.685-52.42-87.254 9.614-38.576 48.685-62.052 87.254-52.436 38.578 9.617 62.053 48.69 52.435 87.264v-.001h.001Z"/></g><mask id="c" width="89" height="89" x="56" y="56" maskUnits="userSpaceOnUse" style="mask-type:luminance"><path fill="#fff" d="M144.435 56h-88.37v88.812h88.37V56Z"/></mask><g mask="url(#c)"><path fill="#000" d="m132.063 75.441.884 1.326-.884 1.325c-29.604 40.209-46.836 58.325-53.906 56.116-4.418-1.326-8.837-5.745-13.256-12.372-1.767-2.21-3.092-4.861-4.418-7.07-.884-1.767-1.767-3.093-2.21-3.977-.441-.883-.883-1.767-.883-2.651v-.883c-5.744-21.651 7.07-43.744 28.72-49.488 10.163-2.651 20.768-1.326 30.046 3.977 4.861 3.093 10.163 7.511 15.907 13.697Zm-17.674-11.046c-17.674-9.721-40.209-3.535-49.93 14.58-4.418 8.396-5.744 18.117-3.534 27.396v.884c0 .441.442 1.325.442 1.767.442.884.883 2.209 1.767 3.535l3.977 6.628c3.976 5.744 7.953 9.72 11.488 11.046 4.418 1.325 21.651-16.791 49.046-53.464-3.535-4.419-8.396-8.837-13.256-12.372Z"/><path fill="#EC1C79" d="M114.389 64.394c-17.674-9.72-40.208-3.535-49.93 14.581-4.418 8.396-5.743 18.116-3.534 27.395v.884c0 .442.442 1.326.442 1.767.442.884.884 2.21 1.767 3.535l3.977 6.628c3.977 5.744 7.953 9.721 11.488 11.046 4.419 1.326 21.651-16.79 49.046-53.464-3.535-4.418-8.395-8.837-13.256-12.372Z"/><path fill="#000" d="M103.784 144.369a40.543 40.543 0 0 1-40.65-40.65 40.544 40.544 0 0 1 40.65-40.65c22.535 0 40.651 18.557 40.651 41.092 0 22.092-18.116 40.208-40.651 40.208Zm0-3.534a36.583 36.583 0 0 0 36.674-36.674 36.583 36.583 0 0 0-36.674-36.674A36.583 36.583 0 0 0 67.11 104.16c0 19.883 16.349 36.674 36.674 36.674Z"/><path fill="#fff" d="M103.785 140.836a36.583 36.583 0 0 0 36.673-36.674 36.583 36.583 0 0 0-36.673-36.674 36.584 36.584 0 0 0-36.674 36.674c0 19.883 16.348 36.674 36.674 36.674Z"/><path fill="#000" d="m76.39 111.673-4.86-14.58h4.418l2.65 8.394 2.652-8.395h3.535l2.651 8.395 2.651-8.395h3.977l-4.86 14.581h-3.535l-3.093-8.395-3.093 8.395H76.39Zm19.441-.441V96.65h11.488v3.535h-7.511v2.209h7.07v3.093h-7.07v2.21h7.953v3.535h-11.93Zm17.232 0v-11.047h-4.418V96.65h12.814v3.535h-4.419v11.047h-3.977Zm10.163 0V96.65h3.977v5.303h5.302V96.65h3.977v14.582h-3.977v-5.745h-5.302v5.745h-3.977ZM58.274 92.232c-.884-.442-1.326-1.768-.884-2.651.442-.884 1.768-1.326 2.651-.884l5.744 3.093c.884.442 1.326 1.767.884 2.65-.442.885-1.767 1.326-2.651.885l-5.744-3.093ZM57.832 102.394c-.884-.442-1.326-1.768-.884-2.651.442-.884 1.768-1.326 2.651-.884l5.744 2.651c.884.442 1.326 1.767.884 2.651-.442.884-1.767 1.326-2.651.884l-5.744-2.651Z"/></g></g><g filter="url(#d)"><circle cx="160" cy="46" r="28" fill="#9FE0C1"/></g><path fill="#212121" fill-rule="evenodd" d="M165.6 58.6V47.4h11.2V36.2h-11.2v11.2h-11.2V36.2h-11.2v22.4h22.4Z" clip-rule="evenodd" opacity=".9"/><defs><linearGradient id="b" x1="100" x2="100" y1="28" y2="172.162" gradientUnits="userSpaceOnUse"><stop stop-color="#EC448E"/><stop offset="1" stop-color="#C92A40"/></linearGradient><clipPath id="a"><path fill="#fff" d="M28 28h144v144H28z"/></clipPath><filter id="d" width="57.795" height="60.039" x="132" y="18" color-interpolation-filters="sRGB" filterUnits="userSpaceOnUse"><feFlood flood-opacity="0" result="BackgroundImageFix"/><feBlend in="SourceGraphic" in2="BackgroundImageFix" result="shape"/><feColorMatrix in="SourceAlpha" result="hardAlpha" values="0 0 0 0 0 0 0 0 0 0 0 0 0 0 0 0 0 0 127 0"/><feOffset dx="1.795" dy="5.385"/><feGaussianBlur stdDeviation="2.019"/><feComposite in2="hardAlpha" k2="-1" k3="1" operator="arithmetic"/><feColorMatrix values="0 0 0 0 1 0 0 0 0 1 0 0 0 0 1 0 0 0 0.25 0"/><feBlend in2="shape" result="effect1_innerShadow_440_111"/></filter></defs></svg>