<svg width="20" height="20" fill="none" xmlns:xlink="http://www.w3.org/1999/xlink" xmlns="http://www.w3.org/2000/svg"><circle cx="10" cy="10" r="10" fill="#fff"/><path id="a" d="M10 0A10 10 0 0 0 .86 14.06c.8 1.3 1.9 2.25 3.13 2.44 1.11.17 3.39 0 4.15-1.51 1.53-3.03-1.35-7.54.85-10.83 1.77-2.66 5.81-2.42 7.12-2.08A10 10 0 0 0 10 0Z"/><path id="b" d="M5.43 12.08c-1.04 1-2.92 1.26-4.02.34C.37 11.55-.07 9.77.17 8.2.84 3.85 4.94.04 10 0a10 10 0 0 1 6.04 2.02C14.55 1.47 9.5.82 7.46 3.68c-2.3 3.23.12 6.34-2.03 8.4Z"/><path id="c" d="M16.13 2.09A10 10 0 0 0 10 0 10 10 0 0 0 .5 6.92C.13 8.2.63 9.42 1.82 9.98c1.08.5 2.2.04 2.63-.88.84-1.78-.33-4.12 2.43-6.63C9.29.27 13.5.72 16.13 2.1Z"/><use xlink:href="#a" fill="#FFEBCB"/><use xlink:href="#b" fill="#FFCC9F"/><use xlink:href="#c" fill="#FFA27C"/><use xlink:href="#a" transform="rotate(180 10 10)" fill="#67E0F5"/><use xlink:href="#b" transform="rotate(180 10 10)" fill="#089bc6"/><use xlink:href="#c" transform="rotate(180 10 10)" fill="#145c6a"/></svg>