<svg xmlns="http://www.w3.org/2000/svg" width="200" height="200" fill="none">   <g clip-path="url(#a)">     <path fill="#50AF95" d="M170 117A72 72 0 1 1 30 83a72 72 0 0 1 140 34Z"/>     <path fill="#fff" fill-rule="evenodd" d="M108 103a120 120 0 0 1-16 0c-15-1-26-4-26-7s11-6 26-6v10a115 115 0 0 0 16 0V90c15 0 26 3 26 6s-11 6-26 7Zm0-14V79h21V65H71v14h21v10c-17 0-30 4-30 8s13 7 30 8v30h16v-30c17-1 30-4 30-8s-13-8-30-8Z" clip-rule="evenodd"/>   </g>   <g filter="url(#b)">     <circle cx="160" cy="46" r="28" fill="#fff"/>   </g>   <path fill="#fff" d="M138 50v-1l5-3 4-4c1-1 4-4 6-4h4l7 2v3s-6-5-8-2c-4 9 3 10 3 10l7-3 8 3h9l-10 4h-29l-8-4 2-1Z"/>   <path fill="#0085FF" d="M159 31h1l1 1v3a302 302 0 0 0 0 4h1a110 110 0 0 1-1-8v2l1 1 1 2v1a32 32 0 0 0 1 3 48 48 0 0 0 3 6 12 12 0 0 0 3 2l1 1v-5h1a23 23 0 0 0 4 3 16 16 0 0 0 2 1h1l2 1h-2l-1-1v3h5a739 739 0 0 0 1 0v1a31 31 0 0 1-10 3v1a1015 1015 0 0 1-5 0h-3a7 7 0 0 1-5 0h-1l1-1a18 18 0 0 1 1 0v-1a17 17 0 0 1 2 1h5-3l-1-1h-2v-1a13 13 0 0 1 1 0l1-1 3 1 4 1h2l2-1h-7l-3-1 1-1h5c3 1 6 2 8 1h2v-1l-1 1h-1l-6-1h-1l-1-1a20 20 0 0 0-2 0h-7l-3 1-1 1-1-1h-1v1a6 6 0 0 1-3 2 126 126 0 0 1-2 1l3-1h1l2-1h1l1-1h1l1-1c4-2 4-2 6-1-3 0-4 2-6 3l-1 1a48 48 0 0 0-2 2h-1v1l-1-1h-2l-1-1-6 1h-2v-1h-1l-10-4h1a154 154 0 0 0 3-1 52 52 0 0 1 1 0v-1h-2 2l2-2a13 13 0 0 0 2-1l1-2a44 44 0 0 1 1-1l4-4h1l5-2a29 29 0 0 0 2-3v-2l1-1-1 7h1v-4a217 217 0 0 1 0-1v-2Zm-8 8a25 25 0 0 1-1 1h-1v1h-1a30 30 0 0 0-3 4l-1 2v3l1-1 3-1 2-1v-2l3-4h7l3 2-1-2v-1l-5-2-6 1Zm7 2v3a269 269 0 0 0 0 5v2h1V41h-1Zm-1 0v1h-1a111 111 0 0 1-1 3v2l-1 1a21 21 0 0 1-1 2l-2 2h-1l-6 1h-3a41 41 0 0 1-1 0v-1 1a156 156 0 0 0 4 1l8-2 1-1 1-1 1-1v-1h1a72 72 0 0 1 0 1l1 1v-9Zm-3 1a8 8 0 0 0-2 1l-1 3-1 1-1 2h-1v1a8 8 0 0 1-5 1 347 347 0 0 1-6 0l1 1a23 23 0 0 0 9 0 6 6 0 0 0 2-2h1v-1h1v-1a28 28 0 0 1 0-1l1-2 1-1 1-2Zm6 0v9-1h2v-8h-2Zm2 1v7a90 90 0 0 0 1 0v-1h2a40 40 0 0 1-2-4v-2h-1Zm9 1v5l2 1h1v-4h-1v-1h-1l-1-1Zm-28 2a128 128 0 0 1-1 1v1h-2v2h4v-4h-1Zm31 0v2a20 20 0 0 0 0 2h1a33 33 0 0 0 1 0h1v-3h-2v-1h-1Z"/>   <path fill="#005FB8" d="M156 57h1v1l2 2v-4h1a11 11 0 0 0 3 1h4a62 62 0 0 1 2-1v1l-4 1a23 23 0 0 0-4 2h-3a37 37 0 0 0-2-1l-2-1h-2l-2-2h3-1l4 1Zm6 1-1 2 2-2h-1Z"/>   <defs>     <clipPath id="a">       <path fill="#fff" d="M28 28h144v144H28z"/>     </clipPath>     <filter id="b" width="57.8" height="60" x="132" y="18" color-interpolation-filters="sRGB" filterUnits="userSpaceOnUse">       <feFlood flood-opacity="0" result="BackgroundImageFix"/>       <feBlend in="SourceGraphic" in2="BackgroundImageFix" result="shape"/>       <feColorMatrix in="SourceAlpha" result="hardAlpha" values="0 0 0 0 0 0 0 0 0 0 0 0 0 0 0 0 0 0 127 0"/>       <feOffset dx="1.8" dy="5.4"/>       <feGaussianBlur stdDeviation="2"/>       <feComposite in2="hardAlpha" k2="-1" k3="1" operator="arithmetic"/>       <feColorMatrix values="0 0 0 0 1 0 0 0 0 1 0 0 0 0 1 0 0 0 0.25 0"/>       <feBlend in2="shape" result="effect1_innerShadow_733_57"/>     </filter>   </defs> </svg>