<svg xmlns="http://www.w3.org/2000/svg" width="200" height="200" fill="none"><path fill="#fff" d="M169.846 117.417c-9.617 38.572-48.689 62.046-87.27 52.427-38.564-9.616-62.04-48.685-52.42-87.254 9.614-38.576 48.685-62.052 87.254-52.436 38.578 9.617 62.053 48.69 52.435 87.264v-.001h.001Z"/><g clip-path="url(#a)"><path fill="#5A5564" d="m145.417 58.22-3.954 3.953a55.976 55.976 0 0 1 0 75.545l3.954 3.954a61.628 61.628 0 0 0 0-83.545v.092ZM62.267 58.562a55.974 55.974 0 0 1 75.546 0l3.953-3.953a61.625 61.625 0 0 0-83.545 0l4.046 3.953ZM58.563 137.758a55.972 55.972 0 0 1 0-75.505l-3.954-3.954a61.628 61.628 0 0 0 0 83.545l3.954-4.086ZM137.759 141.41a55.971 55.971 0 0 1-75.545 0l-3.954 3.954a61.628 61.628 0 0 0 83.546 0l-4.047-3.954Z"/><path fill="#F09242" d="M124.962 86.808c-.791-8.25-7.908-11.018-16.909-11.861V63.586h-6.959v11.15h-5.562v-11.15h-6.906v11.44H74.511v7.446s5.14-.092 5.06 0a3.598 3.598 0 0 1 3.955 3.058v31.315a2.437 2.437 0 0 1-.844 1.7 2.42 2.42 0 0 1-1.792.606c.092.079-5.061 0-5.061 0l-1.318 8.316h13.983v11.625h6.96v-11.453h5.561v11.4h6.972v-11.493c11.756-.711 19.954-3.611 20.982-14.616.83-8.856-3.335-12.81-9.99-14.405 4.046-1.99 6.55-5.68 5.983-11.717Zm-9.753 24.752c0 8.645-14.814 7.657-19.532 7.657v-15.341c4.718.013 19.532-1.344 19.532 7.684Zm-3.229-21.615c0 7.908-12.362 6.946-16.29 6.946V82.947c3.928 0 16.29-1.24 16.29 6.998Z"/><path fill="#282138" d="M99.987 172a71.999 71.999 0 1 1 .027-143.998A71.999 71.999 0 0 1 99.987 172Zm0-138.386a66.347 66.347 0 0 0-46.852 113.269 66.344 66.344 0 1 0 93.809-93.846 66.35 66.35 0 0 0-46.957-19.423Z"/></g><g filter="url(#b)"><circle cx="160" cy="46" r="28" fill="#9FE0C1"/></g><path fill="#212121" fill-rule="evenodd" d="M165.6 58.6V47.4h11.2V36.2h-11.2v11.2h-11.2V36.2h-11.2v22.4h22.4Z" clip-rule="evenodd" opacity=".9"/><defs><clipPath id="a"><path fill="#fff" d="M28 28h144v144H28z"/></clipPath><filter id="b" width="57.795" height="60.039" x="132" y="18" color-interpolation-filters="sRGB" filterUnits="userSpaceOnUse"><feFlood flood-opacity="0" result="BackgroundImageFix"/><feBlend in="SourceGraphic" in2="BackgroundImageFix" result="shape"/><feColorMatrix in="SourceAlpha" result="hardAlpha" values="0 0 0 0 0 0 0 0 0 0 0 0 0 0 0 0 0 0 127 0"/><feOffset dx="1.795" dy="5.385"/><feGaussianBlur stdDeviation="2.019"/><feComposite in2="hardAlpha" k2="-1" k3="1" operator="arithmetic"/><feColorMatrix values="0 0 0 0 1 0 0 0 0 1 0 0 0 0 1 0 0 0 0.25 0"/><feBlend in2="shape" result="effect1_innerShadow_440_46"/></filter></defs></svg>