<svg width="36" height="36" fill="none" xmlns="http://www.w3.org/2000/svg"><g clip-path="url(#a)"><mask id="b" style="mask-type:alpha" maskUnits="userSpaceOnUse" x="0" y="0" width="36" height="36"><path d="M18 0C8.06 0 0 8.059 0 18c0 9.94 8.06 18 18 18 9.941 0 18-8.06 18-18 0-9.941-8.06-18-18-18z" fill="#4EAF94"/></mask><g clip-path="url(#c)"><path d="M17.996 35.922c9.93 0 17.979-7.995 17.979-17.857 0-9.862-8.05-17.857-17.979-17.857C8.066.208.018 8.203.018 18.065c0 9.862 8.049 17.857 17.978 17.857z" fill="#3A70C9"/><path fill-rule="evenodd" clip-rule="evenodd" d="M14.468 21.473h7.254l1.393 4.156h4.399l-1.566-4.202h1.566v-3.361h-2.819L19.998 5.46h-3.834l-4.672 12.605H8.69v3.361h1.558L8.69 25.63h4.399l1.379-4.156zm6.123-3.407h-4.992l2.482-7.508 2.51 7.508z" fill="#fff"/></g><path opacity=".7" fill="#000" d="M-4 19.5h43.909V30H-4z"/><path d="M15.717 28.5h-.352v-.682h-.352v-.682h-.352v-.681h-.352v-.682h-.352v-.682h-.352v-.682h-.352v.682h-.352v.682h-.352v.681h-.352v.682h-.352v.682h-.352v.682h-.352V21h1.056v3.75h.352v-.682h.352v-.682h.352v-.681h.352v.681h.352v.682h.352v.682h.352V21h1.056v7.5zM21 28.5h-1.056v-1.023h-.352v-1.023h-.352v-.681h-.352v-.341h-.352v.34h-.352v.683h-.352v1.022h-.352V28.5h-1.056v-1.023h.352v-1.023h.352v-.681h.352v-.682h.352v-.682h-.352v-.682h-.352v-.681h-.352v-1.023h-.352V21h1.056v1.023h.352v1.023h.352v.681h.352v.341h.352v-.34h.352v-.683h.352v-1.022h.352V21H21v1.023h-.352v1.023h-.352v.681h-.352v.682h-.352v.682h.352v.682h.352v.681h.352v1.023H21V28.5zM26.282 27.818h-.352v.341h-.352v.341h-2.464v-.34h-.352v-.342h-.352v-.34h-.352v-.342h-.352v-4.772h.352v-.341h.352v-.341h.352v-.341h.352V21h2.464v.34h.352v.342h.352v.682h-1.056v-.341h-1.76v.34h-.352v.341h-.352v4.091h.352v.341h.352v.341h1.76v-2.045h-.352v.34h-1.056V24.41h2.464v3.41z" fill="#fff"/></g><defs><clipPath id="a"><rect width="36" height="36" rx="18" fill="#fff"/></clipPath><clipPath id="c"><path fill="#fff" d="M0 0h36v36H0z"/></clipPath></defs></svg>