<svg id="_Слой_1" data-name="Слой 1" xmlns="http://www.w3.org/2000/svg" viewBox="0 0 100 100">   <defs>     <style>       .cls-1 {         fill: #5d7feb;       }        .cls-1, .cls-2, .cls-3, .cls-4 {         stroke-width: 0px;       }        .cls-2 {         fill: #08256b;       }        .cls-3 {         fill: #c8e2f7;       }        .cls-4 {         fill: #df4b50;       }     </style>   </defs>   <g>     <polygon class="cls-4" points="50 50 .69587 .56053 99.30413 .56053 50 50"/>     <polygon class="cls-1" points="50 50 99.30413 99.43947 .69587 99.43947 50 50"/>   </g>   <g>     <path class="cls-3" d="M99.999,75l.0005-1.0452c.0055-7.9707.00951-14.2665-2.89169-18.3152-1.56181-2.1793-3.58791-3.2508-3.92831-3.4205-2.255-1.2673-4.4628-1.582-6.4115-1.8597l-.15639-.0223c-1.5881-.2268-3.345-.3371-5.3712-.3371h-12.4808c-2.0262,0-3.7831.1103-5.3712.3371l-.1564.0224c-1.9487.2776-4.1564.5923-6.4114,1.8596-.3405.1697-2.3666,1.2412-3.9285,3.4205-2.9014,4.0487-2.8971,10.3445-2.8916,18.3152l.0005,1.0452-.0005,1.0452c-.0055,7.9708-.0098,14.2665,2.8917,18.3152,1.5616,2.1792,3.5876,3.2506,3.9283,3.4205,2.2551,1.2674,4.4626,1.582,6.4114,1.8596l.1565.0224c1.5881.2268,3.345.3371,5.3712.3371h12.4808c2.0262,0,3.7831-.1103,5.3712-.3371l.15639-.0224c1.94891-.2776,4.1564-.5922,6.41161-1.8596.3406-.1699,2.3666-1.2413,3.9282-3.4205,2.9012-4.0487,2.89719-10.3444,2.89169-18.3152l-.0005-1.0452Z"/>     <path class="cls-2" d="M67.902,61.9133h15.389l5.6986,13.0507h-6.1663v.2715c1.1937.2654,2.1913.7692,2.99319,1.51131.8019.7421,1.3476,1.5812,1.6369,2.516.2894.93539.3735,1.9129.2533,2.9324-.1208,1.02-.4313,1.9521-.9316,2.7967-.5003.8446-1.2207,1.5416-2.1612,2.0905-.9405.5494-2.0076.8237-3.2013.8237h-15.2443l-5.6986-12.9421h6.8716v-.2534c-1.8448-.362-3.2889-1.0922-4.3316-2.1902-1.0431-1.098-1.5645-2.4798-1.5645-4.1451,0-1.6895.6358-3.1885,1.9081-4.4982,1.272-1.3091,2.78811-1.9638,4.5487-1.9638Z"/>   </g> </svg>