<svg width="100" height="100" viewBox="0 0 100 100" fill="none" xmlns="http://www.w3.org/2000/svg">
<path fill-rule="evenodd" clip-rule="evenodd" d="M50.2757 6.25919L68.1666 6.5511L81.016 19.0039L93.4604 31.861L93.7407 49.7523L93.6538 55.0777C94.371 55.7599 95.0507 56.4812 95.6892 57.2382L95.8114 49.7529L95.5176 31.0096L82.4806 17.5401L69.0194 4.49429L50.2763 4.18848L31.533 4.48221L18.0635 17.5193L5.01773 30.9804L4.71191 49.7235L5.00564 68.4668L18.0427 81.9363L31.5038 94.9821L50.2469 95.2879L57.7668 95.1701C57.009 94.5312 56.2868 93.851 55.604 93.1332L50.2476 93.2173L32.3567 92.9253L19.5074 80.4725L7.063 67.6154L6.78263 49.7241L7.07454 31.8332L19.5272 18.984L32.3844 6.53957L50.2757 6.25919Z" fill="#66DDDD"/>
<path fill-rule="evenodd" clip-rule="evenodd" d="M78.777 21.2413L66.8631 9.6951L50.2746 9.42444L33.6858 9.68441L21.7646 21.2229L10.2184 33.1367L9.94775 49.7253L10.2077 66.314L21.7462 78.2352L33.66 89.7814L50.2485 90.0521L56.904 89.9478C51.7213 85.578 48.4291 79.0373 48.4291 71.7276C48.4291 58.5712 59.0945 47.9058 72.2509 47.9058C79.5585 47.9058 86.0974 51.1962 90.4672 56.3761L90.5753 49.7513L90.3153 33.1625L78.777 21.2413Z" fill="black"/>
<path fill-rule="evenodd" clip-rule="evenodd" d="M25.1645 39.5334C20.0327 53.1996 27.1109 68.6404 40.9129 73.6096C42.6096 74.745 42.3946 80.2092 40.2049 79.1117C30.2959 75.9169 22.6869 68.2852 19.5019 58.3465C14.1934 41.4859 23.3949 23.5602 40.2049 18.2358C41.6691 16.7708 43.2565 22.5633 40.9129 23.7379C33.6581 26.4 27.8187 32.0792 25.1645 39.5334ZM58.9617 23.9155C57.4143 22.88 57.1184 16.9572 59.6697 18.2358C69.4017 21.4305 77.1876 29.0624 80.3728 39.1786C81.3736 42.3571 81.8586 45.5736 81.8743 48.7364C80.1006 48.3113 78.2599 48.0601 76.3706 48.0017C76.0517 37.509 69.447 27.6906 58.9617 23.9155ZM61.2631 52.018C60.1713 48.0414 56.5741 46.4751 50.471 45.7465C45.1621 45.0364 44.1004 43.6164 44.1004 41.1313C44.1004 38.646 45.8701 37.0492 49.4093 37.0492C52.5945 37.0492 54.3644 38.1141 55.2489 40.7765C55.8174 42.4857 60.5578 42.2044 60.5578 40.4217C60.5578 36.4461 56.1626 33.2779 52.5945 32.9668V28.7071C52.5945 26.5798 47.5551 26.4694 47.1086 28.7071V32.7893C41.7997 33.4994 38.4377 37.0492 38.4377 41.4866C38.4377 47.3439 41.9769 49.6509 49.4093 50.5387C54.3644 51.4261 55.9571 52.491 55.9571 55.331C55.9571 55.7096 55.9131 56.0722 55.8288 56.4165C57.4412 54.7288 59.2671 53.2482 61.2631 52.018ZM53.3557 59.4009C52.4439 59.8655 51.339 60.1234 50.1172 60.1234C45.5159 60.1234 43.9232 58.1707 43.3924 55.5083C42.9128 53.5816 37.9067 53.8252 37.9067 55.686V55.8635C38.6143 60.3005 41.4459 63.4955 47.2858 64.3833V68.643C47.2858 69.4559 47.9122 69.9435 48.7426 70.1479C49.4984 66.1974 51.1018 62.5492 53.3557 59.4009Z" fill="white"/>
<path d="M72.5 91C82.7173 91 91 82.7173 91 72.5C91 62.2827 82.7173 54 72.5 54C62.2827 54 54 62.2827 54 72.5C54 82.7173 62.2827 91 72.5 91Z" fill="#F3BB30"/>
<path d="M65.7879 63.7505L72.5 59.8865L79.212 63.7505L76.7444 65.178L72.5 62.7414L68.2556 65.178L65.7879 63.7505ZM79.212 68.6237L76.7444 67.1962L72.5 69.6328L68.2556 67.1962L65.7879 68.6237V71.4787L70.0323 73.9154V78.7886L72.5 80.2159L74.9676 78.7886V73.9154L79.212 71.4787V68.6237ZM79.212 76.3518V73.4969L76.7444 74.9245V77.7795L79.212 76.3518ZM80.9641 77.3609L76.7197 79.7977V82.6526L83.4318 78.7886V71.0604L80.9641 72.4878V77.3609ZM78.4965 66.1871L80.9641 67.6146V70.4696L83.4318 69.0422V66.1871L80.9641 64.7596L78.4965 66.1871ZM70.0323 80.8311V83.6861L72.5 85.1137L74.9676 83.6861V80.8311L72.5 82.2588L70.0323 80.8311ZM65.7879 76.3518L68.2556 77.7795V74.9245L65.7879 73.4969V76.3518ZM70.0323 66.1871L72.5 67.6146L74.9676 66.1871L72.5 64.7596L70.0323 66.1871ZM64.0358 67.6146L66.5035 66.1871L64.0358 64.7596L61.5681 66.1871V69.0422L64.0358 70.4696V67.6146ZM64.0358 72.4878L61.5681 71.0604V78.7886L68.2802 82.6526V79.7977L64.0358 77.3609V72.4878Z" fill="white"/>
</svg>
