<svg width="200" height="200" viewBox="0 0 200 200" fill="none" xmlns="http://www.w3.org/2000/svg"> <g clip-path="url(#clip0_440_151)"> <path d="M169.846 117.417C160.229 155.989 121.157 179.463 82.5764 169.844C44.0118 160.228 20.5351 121.159 30.1565 82.5902C39.7695 44.0142 78.8409 20.5384 117.41 30.1545C155.988 39.7706 179.463 78.8443 169.845 117.418L169.845 117.417H169.846Z" fill="#2775CA"/> <path d="M117.828 108.705C117.828 99.4998 112.305 96.3438 101.259 95.0289C93.3685 93.9767 91.7905 91.8729 91.7905 88.1903C91.7905 84.5078 94.4208 82.1414 99.6807 82.1414C104.415 82.1414 107.045 83.7194 108.36 87.6645C108.623 88.4535 109.412 88.9794 110.201 88.9794H114.409C115.461 88.9794 116.25 88.1903 116.25 87.1387V86.8755C115.198 81.0891 110.464 76.6182 104.415 76.0924V69.7803C104.415 68.728 103.626 67.939 102.311 67.6758H98.3659C97.3136 67.6758 96.5246 68.4648 96.2614 69.7803V75.8292C88.3712 76.8814 83.3745 82.1414 83.3745 88.7168C83.3745 97.396 88.6344 100.815 99.6807 102.13C107.045 103.445 109.412 105.023 109.412 109.231C109.412 113.44 105.73 116.333 100.733 116.333C93.8943 116.333 91.5273 113.439 90.7382 109.494C90.4757 108.442 89.6866 107.916 88.8976 107.916H84.4261C83.3745 107.916 82.5854 108.705 82.5854 109.757V110.02C83.6371 116.595 87.8454 121.329 96.5246 122.645V128.957C96.5246 130.008 97.3136 130.797 98.6285 131.061H102.574C103.626 131.061 104.415 130.272 104.678 128.957V122.645C112.568 121.329 117.828 115.806 117.828 108.705Z" fill="white"/> <path d="M86.7194 137.225C66.4078 129.781 55.9914 106.648 63.5435 86.1731C67.4496 75.0055 76.043 66.497 86.7194 62.5085C87.7612 61.9769 88.2818 61.1792 88.2818 59.8493V56.127C88.2818 55.0632 87.7612 54.2655 86.7194 54C86.4587 54 85.9381 54 85.6775 54.2655C60.9393 62.2424 47.398 89.0984 55.2102 114.358C59.8975 129.248 71.0951 140.682 85.6775 145.468C86.7194 146 87.7612 145.468 88.0212 144.405C88.2818 144.139 88.2818 143.873 88.2818 143.341V139.618C88.2818 138.821 87.5006 137.758 86.7194 137.225ZM114.322 54.2655C113.281 53.7339 112.239 54.2655 111.979 55.3293C111.718 55.5954 111.718 55.8609 111.718 56.3931V60.1154C111.718 61.1792 112.499 62.2424 113.281 62.7746C133.592 70.2193 144.009 93.3524 136.456 113.827C132.55 124.995 123.957 133.503 113.281 137.492C112.239 138.023 111.718 138.821 111.718 140.151V143.873C111.718 144.937 112.239 145.735 113.281 146C113.541 146 114.062 146 114.322 145.735C139.061 137.758 152.602 110.902 144.79 85.6416C140.103 70.4854 128.644 59.0516 114.322 54.2655Z" fill="white"/> </g> <g filter="url(#filter0_i_440_151)"> <circle cx="160" cy="46" r="28" fill="#9FE0C1"/> </g> <path opacity="0.9" fill-rule="evenodd" clip-rule="evenodd" d="M165.6 58.5992V47.3992H176.8V36.1992H165.6V47.3992H154.4V36.1992H143.2V58.5992H165.6Z" fill="#212121"/> <defs> <filter id="filter0_i_440_151" x="132" y="18" width="57.7949" height="60.0386" filterUnits="userSpaceOnUse" color-interpolation-filters="sRGB"> <feFlood flood-opacity="0" result="BackgroundImageFix"/> <feBlend mode="normal" in="SourceGraphic" in2="BackgroundImageFix" result="shape"/> <feColorMatrix in="SourceAlpha" type="matrix" values="0 0 0 0 0 0 0 0 0 0 0 0 0 0 0 0 0 0 127 0" result="hardAlpha"/> <feOffset dx="1.79493" dy="5.38478"/> <feGaussianBlur stdDeviation="2.01929"/> <feComposite in2="hardAlpha" operator="arithmetic" k2="-1" k3="1"/> <feColorMatrix type="matrix" values="0 0 0 0 1 0 0 0 0 1 0 0 0 0 1 0 0 0 0.25 0"/> <feBlend mode="normal" in2="shape" result="effect1_innerShadow_440_151"/> </filter> <clipPath id="clip0_440_151"> <rect width="144" height="144" fill="white" transform="translate(28 28)"/> </clipPath> </defs> </svg>