<svg width="36" height="36" fill="none" xmlns="http://www.w3.org/2000/svg"><g clip-path="url(#a)"><mask id="b" style="mask-type:alpha" maskUnits="userSpaceOnUse" x="0" y="0" width="36" height="36"><path d="M18 0C8.06 0 0 8.059 0 18c0 9.94 8.06 18 18 18 9.941 0 18-8.06 18-18 0-9.941-8.06-18-18-18z" fill="#4EAF94"/></mask><g clip-path="url(#c)"><path d="M18 36c9.941 0 18-8.059 18-18S27.941 0 18 0 0 8.059 0 18s8.059 18 18 18z" fill="#FBFF43"/><path d="M26.858 19.637v-.788c2.7-2.137 2.756-2.643 3.262-3.037.506-.394 1.406-1.74 1.406-2.25 0-.394-.73-1.35-1.068-2.081-.338-.732-.559-1.328-1.181-2.307-.788-1.237-.957-1.406-1.576-1.237-.5.136-1.932-.19-2.925-.506-1.18-.375-1.968-.281-2.812.207-.838.484-3.487 1.086-6.356 1.986-2.87.9-3.263.507-4.332 1.07-1.395.732-3.825 1.35-4.612 1.687-.776.333-1.84.39-2.177.67-.1.083-.579 1.322-.788 2.475-.197 1.084-.506 1.913-.185 2.198.129.115.338.487.731.732.45.282.619 1.097 1.013 1.238 1.012.362 1.237.955 1.8 1.012.562.056 1.125.225 1.518.28.394.057 1.707.029 1.8.17.113.17.17.282.17 1.35 0 1.07.056 3.262.056 3.937 0 .675.224.9 1.8 1.519 1.159.455 2.756.787 5.68.787 2.926 0 5.12-.28 6.3-.506 1.182-.225 1.857-1.012 2.082-1.294.225-.28.281-.843.281-1.575 0-.73.04-3.029 0-3.712-.056-.956.113-1.688.113-2.025z" fill="#000"/></g><path opacity=".7" fill="#000" d="M-4 19.5h43.909V30H-4z"/><path d="M15.717 28.5h-.352v-.682h-.352v-.682h-.352v-.681h-.352v-.682h-.352v-.682h-.352v-.682h-.352v.682h-.352v.682h-.352v.681h-.352v.682h-.352v.682h-.352v.682h-.352V21h1.056v3.75h.352v-.682h.352v-.682h.352v-.681h.352v.681h.352v.682h.352v.682h.352V21h1.056v7.5zM21 28.5h-1.056v-1.023h-.352v-1.023h-.352v-.681h-.352v-.341h-.352v.34h-.352v.683h-.352v1.022h-.352V28.5h-1.056v-1.023h.352v-1.023h.352v-.681h.352v-.682h.352v-.682h-.352v-.682h-.352v-.681h-.352v-1.023h-.352V21h1.056v1.023h.352v1.023h.352v.681h.352v.341h.352v-.34h.352v-.683h.352v-1.022h.352V21H21v1.023h-.352v1.023h-.352v.681h-.352v.682h-.352v.682h.352v.682h.352v.681h.352v1.023H21V28.5zM26.282 27.818h-.352v.341h-.352v.341h-2.464v-.34h-.352v-.342h-.352v-.34h-.352v-.342h-.352v-4.772h.352v-.341h.352v-.341h.352v-.341h.352V21h2.464v.34h.352v.342h.352v.682h-1.056v-.341h-1.76v.34h-.352v.341h-.352v4.091h.352v.341h.352v.341h1.76v-2.045h-.352v.34h-1.056V24.41h2.464v3.41z" fill="#fff"/></g><defs><clipPath id="a"><rect width="36" height="36" rx="18" fill="#fff"/></clipPath><clipPath id="c"><path fill="#fff" d="M0 0h36v36H0z"/></clipPath></defs></svg>