<svg width="24" height="24" viewBox="0 0 24 24" fill="none" xmlns="http://www.w3.org/2000/svg"> <g clip-path="url(#clip0_3088_3863)"> <path d="M11.9995 20.277C16.5711 20.277 20.277 16.571 20.277 11.9995C20.277 7.42795 16.5711 3.72198 11.9995 3.72198C7.42797 3.72198 3.722 7.42795 3.722 11.9995C3.722 16.571 7.42797 20.277 11.9995 20.277Z" stroke="white" stroke-width="60"/> <g clip-path="url(#clip1_3088_3863)"> <path d="M21.2344 8.02502C20.2969 7.1594 19 5.83752 17.9438 4.90002L17.8813 4.85627C17.7773 4.77276 17.66 4.70727 17.5344 4.66252C14.9875 4.18752 3.13438 1.9719 2.90313 2.00002C2.83833 2.0091 2.77639 2.03259 2.72187 2.06877L2.6625 2.11565C2.58939 2.1899 2.53386 2.2796 2.5 2.37815L2.48438 2.41877V2.64065V2.67502C3.81875 6.39065 9.0875 18.5625 10.125 21.4188C10.1875 21.6125 10.3063 21.9813 10.5281 22H10.5781C10.6969 22 11.2031 21.3313 11.2031 21.3313C11.2031 21.3313 20.2531 10.3563 21.1688 9.18752C21.2873 9.04356 21.3919 8.8887 21.4813 8.72502C21.5041 8.59696 21.4933 8.46517 21.45 8.3425C21.4068 8.21982 21.3325 8.11045 21.2344 8.02502ZM13.525 9.30315L17.3875 6.10002L19.6531 8.18752L13.525 9.30315ZM12.025 9.09377L5.375 3.64377L16.1344 5.62815L12.025 9.09377ZM12.625 10.5219L19.4312 9.42502L11.65 18.8L12.625 10.5219ZM4.47187 4.18752L11.4688 10.125L10.4563 18.8063L4.47187 4.18752Z" fill="#FF060A"/> </g> </g> <mask id="mask0_3088_3863" style="mask-type:alpha" maskUnits="userSpaceOnUse" x="0" y="0" width="24" height="24"> <path d="M12.0001 0C5.37271 0 0 5.37237 0 11.9999C0 18.6271 5.37271 24 12.0001 24C18.6274 24 24 18.6271 24 11.9999C24 5.37237 18.6273 0 12.0001 0Z" fill="#4EAF94"/> </mask> <g mask="url(#mask0_3088_3863)"> <rect opacity="0.7" x="-3" y="12" width="29" height="7" fill="black"/> <path d="M8.42727 13.38V14.01H7.37727V18H6.74727V14.01H5.69727V13.38H8.42727Z" fill="white"/> <path d="M10.7386 15.06H10.9486V14.22H10.7386V14.01H9.47863V15.27H10.7386V15.06ZM11.5786 16.95V18H10.9486V17.16H10.7386V16.74H10.5286V16.32H10.3186V15.9H9.47863V18H8.84863V13.38H10.9486V13.59H11.1586V13.8H11.3686V14.01H11.5786V15.27H11.3686V15.48H11.1586V15.69H10.9486V16.11H11.1586V16.53H11.3686V16.95H11.5786Z" fill="white"/> <path d="M13.89 16.95H14.1V14.43H13.89V14.22H13.68V14.01H13.05V14.22H12.84V14.43H12.63V16.95H12.84V17.16H13.05V17.37H13.68V17.16H13.89V16.95ZM14.73 14.22V17.16H14.52V17.37H14.31V17.58H14.1V17.79H13.89V18H12.84V17.79H12.63V17.58H12.42V17.37H12.21V17.16H12V14.22H12.21V14.01H12.42V13.8H12.63V13.59H12.84V13.38H13.89V13.59H14.1V13.8H14.31V14.01H14.52V14.22H14.73Z" fill="white"/> <path d="M17.8814 13.38V18H17.2514V17.79H17.0414V17.37H16.8314V16.95H16.6214V16.53H16.4114V16.11H16.2014V15.69H15.9914V15.27H15.7814V18H15.1514V13.38H15.5714V13.8H15.7814V14.22H15.9914V14.64H16.2014V15.06H16.4114V15.48H16.6214V15.9H16.8314V16.32H17.0414V16.74H17.2514V13.38H17.8814Z" fill="white"/> </g> <defs> <clipPath id="clip0_3088_3863"> <rect width="20" height="20" fill="white" transform="translate(2 2)"/> </clipPath> <clipPath id="clip1_3088_3863"> <rect width="20" height="20" fill="white" transform="translate(2 2)"/> </clipPath> </defs> </svg>