<svg width="25" height="25" viewBox="0 0 25 25" fill="none" xmlns="http://www.w3.org/2000/svg">
<path d="M24 12.0765C24 18.1977 19.0721 23.1598 12.9932 23.1598C6.91421 23.1598 1.98626 18.1977 1.98626 12.0765C1.98626 5.95534 6.91421 0.993164 12.9932 0.993164C19.0721 0.993164 24 5.95534 24 12.0765Z" fill="#D3933E"/>
<path fill-rule="evenodd" clip-rule="evenodd" d="M24.9931 12.0764C24.9931 18.7396 19.627 24.1529 12.9931 24.1529C6.35926 24.1529 0.993149 18.7396 0.993149 12.0764C0.993149 5.41329 6.35926 0 12.9931 0C19.627 0 24.9931 5.41329 24.9931 12.0764ZM12.9931 23.1598C19.0721 23.1598 24 18.1976 24 12.0764C24 5.95528 19.0721 0.993103 12.9931 0.993103C6.91421 0.993103 1.98625 5.95528 1.98625 12.0764C1.98625 18.1976 6.91421 23.1598 12.9931 23.1598Z" fill="#5B0E07"/>
<path d="M19.0107 13.6797C19.4412 13.1988 19.4101 12.2483 18.6704 11.8345L16.6979 10.9242L15.3773 10.9831C14.91 10.8092 14.6705 10.2814 14.8431 9.80592L16.7412 4.57674C17.1088 2.97932 15.0615 2.15389 14.3966 2.89655L7.98596 9.93102C7.16409 11.4207 8.31472 11.669 9.54754 12.1655L12.5941 13.3479C13.0613 13.5218 10.542 18.3935 10.3694 18.8689L10.5338 19.4483C11.1091 20.0276 12.0132 21.1035 12.9172 20.3586L19.0107 13.6797Z" fill="#F2BC74"/>
<g filter="url(#filter0_i_1200_21663)">
<path d="M17.837 12.6727C18.2528 12.2066 18.0733 11.458 17.4938 11.2415L14.3279 10.0588C13.8766 9.89022 13.6453 9.37859 13.8119 8.91774L15.6451 3.849C15.9757 2.93509 14.8329 2.22345 14.1908 2.94333L8.13072 9.73716C7.71492 10.2033 7.89443 10.9519 8.47393 11.1684L11.6399 12.3511C12.0912 12.5197 12.3225 13.0313 12.1558 13.4921L10.3226 18.5609C9.9921 19.4748 11.1349 20.1864 11.777 19.4665L17.837 12.6727Z" fill="#5B0E07"/>
</g>
<defs>
<filter id="filter0_i_1200_21663" x="7.90378" y="2.64819" width="10.1602" height="17.1135" filterUnits="userSpaceOnUse" color-interpolation-filters="sRGB">
<feFlood flood-opacity="0" result="BackgroundImageFix"/>
<feBlend mode="normal" in="SourceGraphic" in2="BackgroundImageFix" result="shape"/>
<feColorMatrix in="SourceAlpha" type="matrix" values="0 0 0 0 0 0 0 0 0 0 0 0 0 0 0 0 0 0 127 0" result="hardAlpha"/>
<feOffset/>
<feGaussianBlur stdDeviation="12"/>
<feComposite in2="hardAlpha" operator="arithmetic" k2="-1" k3="1"/>
<feColorMatrix type="matrix" values="0 0 0 0 0.3375 0 0 0 0 0.154904 0 0 0 0 0.0407813 0 0 0 1 0"/>
<feBlend mode="normal" in2="shape" result="effect1_innerShadow_1200_21663"/>
</filter>
</defs>
</svg>
