<svg width="24" height="24" viewBox="0 0 24 24" fill="none" xmlns="http://www.w3.org/2000/svg"><g clip-path="url(#clip0_2580_3863)"><path d="M12 0C5.37244 0 0 5.37263 0 12C0 18.6274 5.37263 24 12 24C18.6272 24 24 18.6274 24 12C24 5.37263 18.6274 0 12 0Z" fill="#909BA7"/><mask id="mask0_2580_3863" style="mask-type:alpha" maskUnits="userSpaceOnUse" x="0" y="0" width="24" height="24"><path d="M12 0C5.37244 0 0 5.37263 0 12C0 18.6274 5.37263 24 12 24C18.6272 24 24 18.6274 24 12C24 5.37263 18.6274 0 12 0Z" fill="#909BA7"/></mask><g mask="url(#mask0_2580_3863)"><path d="M16.2432 16.9402H7.56709L8.45316 13.6112L7.19922 14.0694L7.61364 12.5075L8.86875 12.049L10.372 6.40039H13.6323L12.4826 10.7287L14.0779 10.146L14.0917 10.1834L13.6885 11.6987L12.0677 12.2907L11.3831 14.8684H16.7992L16.2432 16.9402Z" fill="white"/><rect opacity="0.7" x="-3" y="14" width="29" height="7" fill="black"/><path d="M10.0223 20H9.78985V19.5455H9.55737V19.0909H9.32488V18.6364H9.09239V18.1818H8.8599V17.7273H8.62741V17.2727H8.39493V17.7273H8.16244V18.1818H7.92995V18.6364H7.69746V19.0909H7.46498V19.5455H7.23249V20H7V15H7.69746V17.5H7.92995V17.0455H8.16244V16.5909H8.39493V16.1364H8.62741V16.5909H8.8599V17.0455H9.09239V17.5H9.32488V15H10.0223V20Z" fill="white"/><path d="M13.5112 20H12.8137V19.3182H12.5812V18.6364H12.3487V18.1818H12.1162V17.9545H11.8838V18.1818H11.6513V18.6364H11.4188V19.3182H11.1863V20H10.4888V19.3182H10.7213V18.6364H10.9538V18.1818H11.1863V17.7273H11.4188V17.2727H11.1863V16.8182H10.9538V16.3636H10.7213V15.6818H10.4888V15H11.1863V15.6818H11.4188V16.3636H11.6513V16.8182H11.8838V17.0455H12.1162V16.8182H12.3487V16.3636H12.5812V15.6818H12.8137V15H13.5112V15.6818H13.2787V16.3636H13.0462V16.8182H12.8137V17.2727H12.5812V17.7273H12.8137V18.1818H13.0462V18.6364H13.2787V19.3182H13.5112V20Z" fill="white"/><path d="M17 19.5455H16.7675V19.7727H16.535V20H14.9076V19.7727H14.6751V19.5455H14.4426V19.3182H14.2101V19.0909H13.9777V15.9091H14.2101V15.6818H14.4426V15.4545H14.6751V15.2273H14.9076V15H16.535V15.2273H16.7675V15.4545H17V15.9091H16.3025V15.6818H15.1401V15.9091H14.9076V16.1364H14.6751V18.8636H14.9076V19.0909H15.1401V19.3182H16.3025V17.9545H16.07V18.1818H15.3726V17.2727H17V19.5455Z" fill="white"/></g></g><defs><clipPath id="clip0_2580_3863"><rect width="24" height="24" fill="white"/></clipPath></defs></svg>