<svg width="100" height="100" viewBox="0 0 100 100" fill="none" xmlns="http://www.w3.org/2000/svg"> <path d="M99.9981 50L99.9991 47.9096C100.01 31.9682 100.019 19.3767 94.2157 11.2791C91.092 6.92054 87.0399 4.77765 86.359 4.43821C81.8489 1.9036 77.4335 1.27424 73.536 0.718826L73.2232 0.674298C70.047 0.22056 66.5332 0 62.4809 0H37.5191C33.4668 0 29.953 0.220557 26.7768 0.674298L26.464 0.718965C22.5665 1.27424 18.1512 1.9036 13.6412 4.43821C12.9603 4.77765 8.90796 6.92054 5.7842 11.2793C-0.0186199 19.3767 -0.01002 31.9682 0.000938728 47.9096L0.00190998 50L0.000938728 52.0905C-0.01002 68.032 -0.0186199 80.6235 5.78434 88.7209C8.90769 93.0792 12.9597 95.2221 13.6409 95.5618C18.1512 98.0967 22.5662 98.7258 26.4639 99.281L26.7768 99.3257C29.953 99.7794 33.4668 100 37.5191 100H62.4809C66.5332 100 70.047 99.7794 73.2232 99.3257L73.536 99.281C77.4338 98.7258 81.8488 98.0967 86.3591 95.5618C87.0404 95.2221 91.0923 93.0792 94.2157 88.7209C100.019 80.6235 100.01 68.032 99.9991 52.0905L99.9981 50Z" fill="#C8E2F7"/> <path d="M35.8031 23.8267H66.581L77.9782 49.9281H65.6457V50.4711C68.0331 51.0019 70.0282 52.0094 71.632 53.4937C73.2358 54.978 74.3271 56.656 74.9059 58.5257C75.4847 60.3965 75.6527 62.3514 75.4123 64.3904C75.1708 66.4305 74.5498 68.2946 73.5492 69.9838C72.5486 71.673 71.1078 73.0671 69.2268 74.1648C67.3458 75.2637 65.2116 75.8123 62.8242 75.8123H32.3357L20.9385 49.9281H34.6817V49.4213C30.9921 48.6973 28.1038 47.2369 26.0183 45.0409C23.9323 42.8448 22.8894 40.0813 22.8894 36.7507C22.8894 33.3717 24.161 30.3736 26.7056 27.7543C29.2497 25.1361 32.2818 23.8267 35.8031 23.8267Z" fill="#08256B"/> </svg>