<svg xmlns="http://www.w3.org/2000/svg" width="700" height="700" fill="none"><g clip-path="url(#a)"><circle cx="350" cy="350" r="350" fill="#fff"/><path fill="#1F5AF6" d="m349.992 71.008-279 279 92.874 92.873 93.373 93.209 92.753 92.918 279-279-92.836-92.836-93.29-93.291-92.874-92.873Z"/><path fill="url(#b)" d="M443.164 164.164h88.777v258.679h-88.777z" transform="rotate(45 443.164 164.164)"/><path fill="url(#c)" d="M0 0h88.777v265.305H0z" transform="scale(1 -1) rotate(-45 -518.638 -578.502)"/><path fill="url(#d)" d="M0 0h131.703v291.446H0z" transform="scale(-1 1) rotate(-45 -23.23 616.878)"/><path fill="url(#e)" d="M257.157 536.172h262.569v301.871H257.157z" transform="rotate(-135 257.157 536.172)"/></g><defs><linearGradient id="b" x1="443.164" x2="507.282" y1="199.256" y2="217.675" gradientUnits="userSpaceOnUse"><stop stop-color="#1B49C1"/><stop offset="1" stop-color="#1F5AF6" stop-opacity="0"/></linearGradient><linearGradient id="c" x1="0" x2="67.599" y1="35.991" y2="60.628" gradientUnits="userSpaceOnUse"><stop stop-color="#1B49C1"/><stop offset="1" stop-color="#1F5AF6" stop-opacity="0"/></linearGradient><linearGradient id="d" x1=".242" x2="132.83" y1="12.931" y2="152.839" gradientUnits="userSpaceOnUse"><stop stop-color="#5F8BFF"/><stop offset="1" stop-color="#1F5AF6" stop-opacity="0"/></linearGradient><linearGradient id="e" x1="269.41" x2="400.263" y1="555.274" y2="750.159" gradientUnits="userSpaceOnUse"><stop stop-color="#5F8BFF"/><stop offset="1" stop-color="#1F5AF6" stop-opacity="0"/></linearGradient><clipPath id="a"><path fill="#fff" d="M0 0h700v700H0z"/></clipPath></defs></svg>